# Blender 5.0.0
# www.blender.org
o Sphere
v 0.000000 1.000000 0.000000
v 0.000000 0.831470 -0.555570
v 0.000000 0.555570 -0.831470
v 0.000000 0.195090 -0.980785
v 0.000000 0.000000 -1.000000
v 0.000000 -0.195090 -0.980785
v 0.000000 -0.555570 -0.831470
v 0.000000 -1.000000 0.000000
v 0.038060 0.980785 -0.191342
v 0.074658 0.923880 -0.375330
v 0.108386 0.831470 -0.544895
v 0.137950 0.707107 -0.693520
v 0.162212 0.555570 -0.815493
v 0.180240 0.382683 -0.906127
v 0.191342 0.195090 -0.961940
v 0.195090 0.000000 -0.980785
v 0.191342 -0.195090 -0.961940
v 0.180240 -0.382683 -0.906127
v 0.162212 -0.555570 -0.815493
v 0.137950 -0.707107 -0.693520
v 0.108386 -0.831470 -0.544895
v 0.074658 -0.923880 -0.375330
v 0.038060 -0.980785 -0.191342
v 0.074658 0.980785 -0.180240
v 0.146447 0.923880 -0.353553
v 0.212608 0.831470 -0.513280
v 0.270598 0.707107 -0.653281
v 0.318190 0.555570 -0.768178
v 0.353553 0.382683 -0.853553
v 0.375330 0.195090 -0.906127
v 0.382683 0.000000 -0.923879
v 0.375330 -0.195090 -0.906127
v 0.353553 -0.382683 -0.853553
v 0.318190 -0.555570 -0.768178
v 0.270598 -0.707107 -0.653281
v 0.212608 -0.831470 -0.513280
v 0.146447 -0.923880 -0.353553
v 0.074658 -0.980785 -0.180240
v 0.108386 0.980785 -0.162212
v 0.212608 0.923880 -0.318190
v 0.308658 0.831470 -0.461940
v 0.392847 0.707107 -0.587938
v 0.461940 0.555570 -0.691342
v 0.513280 0.382683 -0.768178
v 0.544895 0.195090 -0.815493
v 0.555570 0.000000 -0.831469
v 0.544895 -0.195090 -0.815493
v 0.513280 -0.382683 -0.768178
v 0.461940 -0.555570 -0.691342
v 0.392847 -0.707107 -0.587938
v 0.308658 -0.831470 -0.461940
v 0.212608 -0.923880 -0.318190
v 0.108386 -0.980785 -0.162212
v 0.137950 0.980785 -0.137950
v 0.270598 0.923880 -0.270598
v 0.392847 0.831470 -0.392847
v 0.500000 0.707107 -0.500000
v 0.587938 0.555570 -0.587938
v 0.653281 0.382683 -0.653281
v 0.693520 0.195090 -0.693520
v 0.707107 0.000000 -0.707107
v 0.693520 -0.195090 -0.693520
v 0.653281 -0.382683 -0.653281
v 0.587938 -0.555570 -0.587938
v 0.500000 -0.707107 -0.500000
v 0.392847 -0.831470 -0.392847
v 0.270598 -0.923880 -0.270598
v 0.137950 -0.980785 -0.137950
v 0.162212 0.980785 -0.108386
v 0.318190 0.923880 -0.212608
v 0.461940 0.831470 -0.308658
v 0.587938 0.707107 -0.392847
v 0.691342 0.555570 -0.461940
v 0.768178 0.382683 -0.513280
v 0.815493 0.195090 -0.544895
v 0.831470 0.000000 -0.555570
v 0.815493 -0.195090 -0.544895
v 0.768178 -0.382683 -0.513280
v 0.691342 -0.555570 -0.461940
v 0.587938 -0.707107 -0.392847
v 0.461940 -0.831470 -0.308658
v 0.318190 -0.923880 -0.212608
v 0.162212 -0.980785 -0.108386
v 0.180240 0.980785 -0.074658
v 0.353553 0.923880 -0.146447
v 0.513280 0.831470 -0.212607
v 0.653281 0.707107 -0.270598
v 0.768178 0.555570 -0.318190
v 0.853553 0.382683 -0.353553
v 0.906127 0.195090 -0.375330
v 0.923879 0.000000 -0.382683
v 0.906127 -0.195090 -0.375330
v 0.853553 -0.382683 -0.353553
v 0.768178 -0.555570 -0.318190
v 0.653281 -0.707107 -0.270598
v 0.513280 -0.831470 -0.212607
v 0.353553 -0.923880 -0.146447
v 0.180240 -0.980785 -0.074658
v 0.191342 0.980785 -0.038060
v 0.375330 0.923880 -0.074658
v 0.544895 0.831470 -0.108386
v 0.693520 0.707107 -0.137950
v 0.815493 0.555570 -0.162212
v 0.906127 0.382683 -0.180240
v 0.961940 0.195090 -0.191342
v 0.980785 0.000000 -0.195090
v 0.961940 -0.195090 -0.191342
v 0.906127 -0.382683 -0.180240
v 0.815493 -0.555570 -0.162212
v 0.693520 -0.707107 -0.137950
v 0.544895 -0.831470 -0.108386
v 0.375330 -0.923880 -0.074658
v 0.191342 -0.980785 -0.038060
v 0.195090 0.980785 0.000000
v 0.382683 0.923880 0.000000
v 0.555570 0.831470 0.000000
v 0.707107 0.707107 -0.000000
v 0.831469 0.555570 0.000000
v 0.923879 0.382683 -0.000000
v 0.980785 0.195090 0.000000
v 1.000000 0.000000 0.000000
v 0.980785 -0.195090 0.000000
v 0.923879 -0.382683 -0.000000
v 0.831469 -0.555570 0.000000
v 0.707107 -0.707107 -0.000000
v 0.555570 -0.831470 0.000000
v 0.382683 -0.923880 0.000000
v 0.195090 -0.980785 0.000000
v 0.191342 0.980785 0.038060
v 0.375330 0.923880 0.074658
v 0.544895 0.831470 0.108386
v 0.693520 0.707107 0.137950
v 0.815493 0.555570 0.162212
v 0.906127 0.382683 0.180240
v 0.961940 0.195090 0.191342
v 0.980785 0.000000 0.195090
v 0.961940 -0.195090 0.191342
v 0.906127 -0.382683 0.180240
v 0.815493 -0.555570 0.162212
v 0.693520 -0.707107 0.137950
v 0.544895 -0.831470 0.108386
v 0.375330 -0.923880 0.074658
v 0.191342 -0.980785 0.038060
v 0.180240 0.980785 0.074658
v 0.353553 0.923880 0.146447
v 0.513280 0.831470 0.212608
v 0.653281 0.707107 0.270598
v 0.768178 0.555570 0.318190
v 0.853553 0.382683 0.353553
v 0.906127 0.195090 0.375330
v 0.923879 0.000000 0.382683
v 0.906127 -0.195090 0.375330
v 0.853553 -0.382683 0.353553
v 0.768178 -0.555570 0.318190
v 0.653281 -0.707107 0.270598
v 0.513280 -0.831470 0.212608
v 0.353553 -0.923880 0.146447
v 0.180240 -0.980785 0.074658
v 0.162212 0.980785 0.108386
v 0.318190 0.923880 0.212608
v 0.461940 0.831470 0.308658
v 0.587938 0.707107 0.392847
v 0.691341 0.555570 0.461940
v 0.768178 0.382683 0.513280
v 0.815493 0.195090 0.544895
v 0.831469 0.000000 0.555570
v 0.815493 -0.195090 0.544895
v 0.768178 -0.382683 0.513280
v 0.691341 -0.555570 0.461940
v 0.587938 -0.707107 0.392847
v 0.461940 -0.831470 0.308658
v 0.318190 -0.923880 0.212608
v 0.162212 -0.980785 0.108386
v 0.137950 0.980785 0.137950
v 0.270598 0.923880 0.270598
v 0.392847 0.831470 0.392847
v 0.500000 0.707107 0.500000
v 0.587938 0.555570 0.587938
v 0.653281 0.382683 0.653281
v 0.693520 0.195090 0.693520
v 0.707106 0.000000 0.707107
v 0.693520 -0.195090 0.693520
v 0.653281 -0.382683 0.653281
v 0.587938 -0.555570 0.587938
v 0.500000 -0.707107 0.500000
v 0.392847 -0.831470 0.392847
v 0.270598 -0.923880 0.270598
v 0.137950 -0.980785 0.137950
v 0.108386 0.980785 0.162212
v 0.212607 0.923880 0.318190
v 0.308658 0.831470 0.461940
v 0.392847 0.707107 0.587938
v 0.461940 0.555570 0.691342
v 0.513280 0.382683 0.768178
v 0.544895 0.195090 0.815493
v 0.555570 0.000000 0.831469
v 0.544895 -0.195090 0.815493
v 0.513280 -0.382683 0.768178
v 0.461940 -0.555570 0.691342
v 0.392847 -0.707107 0.587938
v 0.308658 -0.831470 0.461940
v 0.212607 -0.923880 0.318190
v 0.108386 -0.980785 0.162212
v 0.074658 0.980785 0.180240
v 0.146447 0.923880 0.353553
v 0.212607 0.831470 0.513280
v 0.270598 0.707107 0.653281
v 0.318189 0.555570 0.768178
v 0.353553 0.382683 0.853553
v 0.375330 0.195090 0.906127
v 0.382683 0.000000 0.923879
v 0.375330 -0.195090 0.906127
v 0.353553 -0.382683 0.853553
v 0.318189 -0.555570 0.768178
v 0.270598 -0.707107 0.653281
v 0.212607 -0.831470 0.513280
v 0.146447 -0.923880 0.353553
v 0.074658 -0.980785 0.180240
v 0.038060 0.980785 0.191342
v 0.074658 0.923880 0.375330
v 0.108386 0.831470 0.544895
v 0.137950 0.707107 0.693520
v 0.162212 0.555570 0.815493
v 0.180240 0.382683 0.906127
v 0.191342 0.195090 0.961939
v 0.195090 0.000000 0.980785
v 0.191342 -0.195090 0.961939
v 0.180240 -0.382683 0.906127
v 0.162212 -0.555570 0.815493
v 0.137950 -0.707107 0.693520
v 0.108386 -0.831470 0.544895
v 0.074658 -0.923880 0.375330
v 0.038060 -0.980785 0.191342
v -0.000000 0.980785 0.195090
v -0.000000 0.923880 0.382683
v -0.000000 0.831470 0.555570
v -0.000000 0.707107 0.707107
v -0.000000 0.555570 0.831469
v 0.000000 0.382683 0.923879
v -0.000000 0.195090 0.980785
v -0.000000 0.000000 0.999999
v -0.000000 -0.195090 0.980785
v 0.000000 -0.382683 0.923879
v -0.000000 -0.555570 0.831469
v -0.000000 -0.707107 0.707107
v -0.000000 -0.831470 0.555570
v -0.000000 -0.923880 0.382683
v -0.000000 -0.980785 0.195090
v -0.038060 0.980785 0.191342
v -0.074658 0.923880 0.375330
v -0.108386 0.831470 0.544895
v -0.137950 0.707107 0.693520
v -0.162212 0.555570 0.815493
v -0.180240 0.382683 0.906127
v -0.191342 0.195090 0.961939
v -0.195091 0.000000 0.980785
v -0.191342 -0.195090 0.961939
v -0.180240 -0.382683 0.906127
v -0.162212 -0.555570 0.815493
v -0.137950 -0.707107 0.693520
v -0.108386 -0.831470 0.544895
v -0.074658 -0.923880 0.375330
v -0.038060 -0.980785 0.191342
v -0.074658 0.980785 0.180240
v -0.146447 0.923880 0.353553
v -0.212608 0.831470 0.513280
v -0.270598 0.707107 0.653281
v -0.318190 0.555570 0.768177
v -0.353553 0.382683 0.853553
v -0.375330 0.195090 0.906127
v -0.382683 0.000000 0.923879
v -0.375330 -0.195090 0.906127
v -0.353553 -0.382683 0.853553
v -0.318190 -0.555570 0.768177
v -0.270598 -0.707107 0.653281
v -0.212608 -0.831470 0.513280
v -0.146447 -0.923880 0.353553
v -0.074658 -0.980785 0.180240
v -0.108386 0.980785 0.162212
v -0.212608 0.923880 0.318190
v -0.308658 0.831470 0.461939
v -0.392847 0.707107 0.587938
v -0.461940 0.555570 0.691341
v -0.513280 0.382683 0.768178
v -0.544895 0.195090 0.815493
v -0.555570 0.000000 0.831469
v -0.544895 -0.195090 0.815493
v -0.513280 -0.382683 0.768178
v -0.461940 -0.555570 0.691341
v -0.392847 -0.707107 0.587938
v -0.308658 -0.831470 0.461939
v -0.212608 -0.923880 0.318190
v -0.108386 -0.980785 0.162212
v -0.137950 0.980785 0.137950
v -0.270598 0.923880 0.270598
v -0.392847 0.831470 0.392847
v -0.500000 0.707107 0.500000
v -0.587938 0.555570 0.587937
v -0.653281 0.382683 0.653281
v -0.693520 0.195090 0.693520
v -0.707106 0.000000 0.707106
v -0.693520 -0.195090 0.693520
v -0.653281 -0.382683 0.653281
v -0.587938 -0.555570 0.587937
v -0.500000 -0.707107 0.500000
v -0.392847 -0.831470 0.392847
v -0.270598 -0.923880 0.270598
v -0.137950 -0.980785 0.137950
v -0.162212 0.980785 0.108386
v -0.318190 0.923880 0.212607
v -0.461940 0.831470 0.308658
v -0.587938 0.707107 0.392847
v -0.691341 0.555570 0.461939
v -0.768177 0.382683 0.513280
v -0.815493 0.195090 0.544895
v -0.831469 0.000000 0.555569
v -0.815493 -0.195090 0.544895
v -0.768177 -0.382683 0.513280
v -0.691341 -0.555570 0.461939
v -0.587938 -0.707107 0.392847
v -0.461940 -0.831470 0.308658
v -0.318190 -0.923880 0.212607
v -0.162212 -0.980785 0.108386
v -0.180240 0.980785 0.074658
v -0.353553 0.923880 0.146447
v -0.513280 0.831470 0.212607
v -0.653281 0.707107 0.270598
v -0.768177 0.555570 0.318189
v -0.853553 0.382683 0.353553
v -0.906127 0.195090 0.375330
v -0.923879 0.000000 0.382683
v -0.906127 -0.195090 0.375330
v -0.853553 -0.382683 0.353553
v -0.768177 -0.555570 0.318189
v -0.653281 -0.707107 0.270598
v -0.513280 -0.831470 0.212607
v -0.353553 -0.923880 0.146447
v -0.180240 -0.980785 0.074658
v -0.191342 0.980785 0.038060
v -0.375330 0.923880 0.074658
v -0.544895 0.831470 0.108386
v -0.693520 0.707107 0.137950
v -0.815493 0.555570 0.162211
v -0.906127 0.382683 0.180240
v -0.961939 0.195090 0.191341
v -0.980784 0.000000 0.195090
v -0.961939 -0.195090 0.191341
v -0.906127 -0.382683 0.180240
v -0.815493 -0.555570 0.162211
v -0.693520 -0.707107 0.137950
v -0.544895 -0.831470 0.108386
v -0.375330 -0.923880 0.074658
v -0.191342 -0.980785 0.038060
v -0.195090 0.980785 -0.000000
v -0.382683 0.923880 -0.000000
v -0.555570 0.831470 -0.000000
v -0.707107 0.707107 -0.000000
v -0.831469 0.555570 -0.000000
v -0.923879 0.382683 -0.000000
v -0.980785 0.195090 -0.000000
v -0.999999 0.000000 -0.000000
v -0.980785 -0.195090 -0.000000
v -0.923879 -0.382683 -0.000000
v -0.831469 -0.555570 -0.000000
v -0.707107 -0.707107 -0.000000
v -0.555570 -0.831470 -0.000000
v -0.382683 -0.923880 -0.000000
v -0.195090 -0.980785 -0.000000
v -0.191342 0.980785 -0.038060
v -0.375330 0.923880 -0.074658
v -0.544895 0.831470 -0.108386
v -0.693520 0.707107 -0.137950
v -0.815493 0.555570 -0.162212
v -0.906127 0.382683 -0.180240
v -0.961939 0.195090 -0.191342
v -0.980784 0.000000 -0.195091
v -0.961939 -0.195090 -0.191342
v -0.906127 -0.382683 -0.180240
v -0.815493 -0.555570 -0.162212
v -0.693520 -0.707107 -0.137950
v -0.544895 -0.831470 -0.108386
v -0.375330 -0.923880 -0.074658
v -0.191342 -0.980785 -0.038060
v -0.180240 0.980785 -0.074658
v -0.353553 0.923880 -0.146447
v -0.513279 0.831470 -0.212607
v -0.653281 0.707107 -0.270598
v -0.768177 0.555570 -0.318190
v -0.853553 0.382683 -0.353553
v -0.906127 0.195090 -0.375330
v -0.923878 0.000000 -0.382683
v -0.906127 -0.195090 -0.375330
v -0.853553 -0.382683 -0.353553
v -0.768177 -0.555570 -0.318190
v -0.653281 -0.707107 -0.270598
v -0.513279 -0.831470 -0.212607
v -0.353553 -0.923880 -0.146447
v -0.180240 -0.980785 -0.074658
v -0.162212 0.980785 -0.108386
v -0.318189 0.923880 -0.212607
v -0.461939 0.831470 -0.308658
v -0.587938 0.707107 -0.392847
v -0.691341 0.555570 -0.461940
v -0.768177 0.382683 -0.513280
v -0.815493 0.195090 -0.544895
v -0.831468 0.000000 -0.555570
v -0.815493 -0.195090 -0.544895
v -0.768177 -0.382683 -0.513280
v -0.691341 -0.555570 -0.461940
v -0.587938 -0.707107 -0.392847
v -0.461939 -0.831470 -0.308658
v -0.318189 -0.923880 -0.212607
v -0.162212 -0.980785 -0.108386
v -0.137950 0.980785 -0.137950
v -0.270598 0.923880 -0.270598
v -0.392847 0.831470 -0.392847
v -0.500000 0.707107 -0.500000
v -0.587937 0.555570 -0.587938
v -0.653281 0.382683 -0.653281
v -0.693519 0.195090 -0.693520
v -0.707106 0.000000 -0.707106
v -0.693519 -0.195090 -0.693520
v -0.653281 -0.382683 -0.653281
v -0.587937 -0.555570 -0.587938
v -0.500000 -0.707107 -0.500000
v -0.392847 -0.831470 -0.392847
v -0.270598 -0.923880 -0.270598
v -0.137950 -0.980785 -0.137950
v -0.108386 0.980785 -0.162212
v -0.212607 0.923880 -0.318190
v -0.308658 0.831470 -0.461939
v -0.392847 0.707107 -0.587938
v -0.461939 0.555570 -0.691341
v -0.513280 0.382683 -0.768177
v -0.544895 0.195090 -0.815493
v -0.555569 0.000000 -0.831469
v -0.544895 -0.195090 -0.815493
v -0.513280 -0.382683 -0.768177
v -0.461939 -0.555570 -0.691341
v -0.392847 -0.707107 -0.587938
v -0.308658 -0.831470 -0.461939
v -0.212607 -0.923880 -0.318190
v -0.108386 -0.980785 -0.162212
v -0.074658 0.980785 -0.180240
v -0.146446 0.923880 -0.353553
v -0.212607 0.831470 -0.513279
v -0.270598 0.707107 -0.653281
v -0.318189 0.555570 -0.768177
v -0.353553 0.382683 -0.853553
v -0.375330 0.195090 -0.906127
v -0.382683 0.000000 -0.923879
v -0.375330 -0.195090 -0.906127
v -0.353553 -0.382683 -0.853553
v -0.318189 -0.555570 -0.768177
v -0.270598 -0.707107 -0.653281
v -0.212607 -0.831470 -0.513279
v -0.146446 -0.923880 -0.353553
v -0.074658 -0.980785 -0.180240
v -0.038060 0.980785 -0.191342
v -0.074658 0.923880 -0.375330
v -0.108386 0.831470 -0.544895
v -0.137950 0.707107 -0.693520
v -0.162211 0.555570 -0.815493
v -0.180240 0.382683 -0.906127
v -0.191341 0.195090 -0.961939
v -0.195090 0.000000 -0.980784
v -0.191341 -0.195090 -0.961939
v -0.180240 -0.382683 -0.906127
v -0.162211 -0.555570 -0.815493
v -0.137950 -0.707107 -0.693520
v -0.108386 -0.831470 -0.544895
v -0.074658 -0.923880 -0.375330
v -0.038060 -0.980785 -0.191342
v 0.000000 0.980785 -0.195090
v 0.000000 0.923880 -0.382683
v 0.000000 0.707107 -0.707107
v 0.000000 0.382683 -0.923879
v 0.000000 -0.382683 -0.923879
v 0.000000 -0.707107 -0.707107
v 0.000000 -0.831470 -0.555570
v 0.000000 -0.923880 -0.382683
v 0.000000 -0.980785 -0.195090
vn -0.0000 1.0000 -0.0000
vn -0.0000 0.8286 -0.5598
vn -0.0000 0.5528 -0.8333
vn -0.0000 0.1939 -0.9810
vn -0.0000 -0.0000 -1.0000
vn -0.0000 -0.1939 -0.9810
vn -0.0000 -0.5528 -0.8333
vn -0.0000 -1.0000 -0.0000
vn 0.0392 0.9796 -0.1971
vn 0.0757 0.9217 -0.3804
vn 0.1092 0.8286 -0.5490
vn 0.1385 0.7041 -0.6965
vn 0.1626 0.5528 -0.8173
vn 0.1804 0.3805 -0.9070
vn 0.1914 0.1939 -0.9622
vn 0.1951 -0.0000 -0.9808
vn 0.1914 -0.1939 -0.9622
vn 0.1804 -0.3805 -0.9070
vn 0.1626 -0.5528 -0.8173
vn 0.1385 -0.7041 -0.6965
vn 0.1092 -0.8286 -0.5490
vn 0.0757 -0.9217 -0.3804
vn 0.0392 -0.9796 -0.1971
vn 0.0769 0.9796 -0.1857
vn 0.1484 0.9217 -0.3584
vn 0.2142 0.8286 -0.5172
vn 0.2718 0.7041 -0.6561
vn 0.3189 0.5528 -0.7699
vn 0.3539 0.3805 -0.8544
vn 0.3754 0.1939 -0.9063
vn 0.3827 -0.0000 -0.9239
vn 0.3754 -0.1939 -0.9063
vn 0.3539 -0.3805 -0.8544
vn 0.3189 -0.5528 -0.7699
vn 0.2718 -0.7041 -0.6561
vn 0.2142 -0.8286 -0.5172
vn 0.1484 -0.9217 -0.3584
vn 0.0769 -0.9796 -0.1857
vn 0.1117 0.9796 -0.1671
vn 0.2155 0.9217 -0.3225
vn 0.3110 0.8286 -0.4654
vn 0.3945 0.7041 -0.5905
vn 0.4630 0.5528 -0.6929
vn 0.5138 0.3805 -0.7689
vn 0.5450 0.1939 -0.8157
vn 0.5556 -0.0000 -0.8315
vn 0.5450 -0.1939 -0.8157
vn 0.5138 -0.3805 -0.7689
vn 0.4630 -0.5528 -0.6929
vn 0.3945 -0.7041 -0.5905
vn 0.3110 -0.8286 -0.4654
vn 0.2155 -0.9217 -0.3225
vn 0.1117 -0.9796 -0.1671
vn 0.1421 0.9796 -0.1421
vn 0.2743 0.9217 -0.2743
vn 0.3958 0.8286 -0.3958
vn 0.5021 0.7041 -0.5021
vn 0.5893 0.5528 -0.5893
vn 0.6539 0.3805 -0.6539
vn 0.6937 0.1939 -0.6937
vn 0.7071 -0.0000 -0.7071
vn 0.6937 -0.1939 -0.6937
vn 0.6539 -0.3805 -0.6539
vn 0.5893 -0.5528 -0.5893
vn 0.5021 -0.7041 -0.5021
vn 0.3958 -0.8286 -0.3958
vn 0.2743 -0.9217 -0.2743
vn 0.1421 -0.9796 -0.1421
vn 0.1671 0.9796 -0.1117
vn 0.3225 0.9217 -0.2155
vn 0.4654 0.8286 -0.3110
vn 0.5905 0.7041 -0.3945
vn 0.6929 0.5528 -0.4630
vn 0.7689 0.3805 -0.5138
vn 0.8157 0.1939 -0.5450
vn 0.8315 -0.0000 -0.5556
vn 0.8157 -0.1939 -0.5450
vn 0.7689 -0.3805 -0.5138
vn 0.6929 -0.5528 -0.4630
vn 0.5905 -0.7041 -0.3945
vn 0.4654 -0.8286 -0.3110
vn 0.3225 -0.9217 -0.2155
vn 0.1671 -0.9796 -0.1117
vn 0.1857 0.9796 -0.0769
vn 0.3584 0.9217 -0.1484
vn 0.5172 0.8286 -0.2142
vn 0.6561 0.7041 -0.2718
vn 0.7699 0.5528 -0.3189
vn 0.8544 0.3805 -0.3539
vn 0.9063 0.1939 -0.3754
vn 0.9239 -0.0000 -0.3827
vn 0.9063 -0.1939 -0.3754
vn 0.8544 -0.3805 -0.3539
vn 0.7699 -0.5528 -0.3189
vn 0.6561 -0.7041 -0.2718
vn 0.5172 -0.8286 -0.2142
vn 0.3584 -0.9217 -0.1484
vn 0.1857 -0.9796 -0.0769
vn 0.1971 0.9796 -0.0392
vn 0.3804 0.9217 -0.0757
vn 0.5490 0.8286 -0.1092
vn 0.6965 0.7041 -0.1385
vn 0.8173 0.5528 -0.1626
vn 0.9070 0.3805 -0.1804
vn 0.9622 0.1939 -0.1914
vn 0.9808 -0.0000 -0.1951
vn 0.9622 -0.1939 -0.1914
vn 0.9070 -0.3805 -0.1804
vn 0.8173 -0.5528 -0.1626
vn 0.6965 -0.7041 -0.1385
vn 0.5490 -0.8286 -0.1092
vn 0.3804 -0.9217 -0.0757
vn 0.1971 -0.9796 -0.0392
vn 0.2010 0.9796 -0.0000
vn 0.3879 0.9217 -0.0000
vn 0.5598 0.8286 -0.0000
vn 0.7101 0.7041 -0.0000
vn 0.8333 0.5528 -0.0000
vn 0.9248 0.3805 -0.0000
vn 0.9810 0.1939 -0.0000
vn 1.0000 -0.0000 -0.0000
vn 0.9810 -0.1939 -0.0000
vn 0.9248 -0.3805 -0.0000
vn 0.8333 -0.5528 -0.0000
vn 0.7101 -0.7041 -0.0000
vn 0.5598 -0.8286 -0.0000
vn 0.3879 -0.9217 -0.0000
vn 0.2010 -0.9796 -0.0000
vn 0.1971 0.9796 0.0392
vn 0.3804 0.9217 0.0757
vn 0.5490 0.8286 0.1092
vn 0.6965 0.7041 0.1385
vn 0.8173 0.5528 0.1626
vn 0.9070 0.3805 0.1804
vn 0.9622 0.1939 0.1914
vn 0.9808 -0.0000 0.1951
vn 0.9622 -0.1939 0.1914
vn 0.9070 -0.3805 0.1804
vn 0.8173 -0.5528 0.1626
vn 0.6965 -0.7041 0.1385
vn 0.5490 -0.8286 0.1092
vn 0.3804 -0.9217 0.0757
vn 0.1971 -0.9796 0.0392
vn 0.1857 0.9796 0.0769
vn 0.3584 0.9217 0.1484
vn 0.5172 0.8286 0.2142
vn 0.6561 0.7041 0.2718
vn 0.7699 0.5528 0.3189
vn 0.8544 0.3805 0.3539
vn 0.9063 0.1939 0.3754
vn 0.9239 -0.0000 0.3827
vn 0.9063 -0.1939 0.3754
vn 0.8544 -0.3805 0.3539
vn 0.7699 -0.5528 0.3189
vn 0.6561 -0.7041 0.2718
vn 0.5172 -0.8286 0.2142
vn 0.3584 -0.9217 0.1484
vn 0.1857 -0.9796 0.0769
vn 0.1671 0.9796 0.1117
vn 0.3225 0.9217 0.2155
vn 0.4654 0.8286 0.3110
vn 0.5905 0.7041 0.3945
vn 0.6929 0.5528 0.4630
vn 0.7689 0.3805 0.5138
vn 0.8157 0.1939 0.5450
vn 0.8315 -0.0000 0.5556
vn 0.8157 -0.1939 0.5450
vn 0.7689 -0.3805 0.5138
vn 0.6929 -0.5528 0.4630
vn 0.5905 -0.7041 0.3945
vn 0.4654 -0.8286 0.3110
vn 0.3225 -0.9217 0.2155
vn 0.1671 -0.9796 0.1117
vn 0.1421 0.9796 0.1421
vn 0.2743 0.9217 0.2743
vn 0.3958 0.8286 0.3958
vn 0.5021 0.7041 0.5021
vn 0.5893 0.5528 0.5893
vn 0.6539 0.3805 0.6539
vn 0.6937 0.1939 0.6937
vn 0.7071 -0.0000 0.7071
vn 0.6937 -0.1939 0.6937
vn 0.6539 -0.3805 0.6539
vn 0.5893 -0.5528 0.5893
vn 0.5021 -0.7041 0.5021
vn 0.3958 -0.8286 0.3958
vn 0.2743 -0.9217 0.2743
vn 0.1421 -0.9796 0.1421
vn 0.1117 0.9796 0.1671
vn 0.2155 0.9217 0.3225
vn 0.3110 0.8286 0.4654
vn 0.3945 0.7041 0.5905
vn 0.4630 0.5528 0.6929
vn 0.5138 0.3805 0.7689
vn 0.5450 0.1939 0.8157
vn 0.5556 -0.0000 0.8315
vn 0.5450 -0.1939 0.8157
vn 0.5138 -0.3805 0.7689
vn 0.4630 -0.5528 0.6929
vn 0.3945 -0.7041 0.5905
vn 0.3110 -0.8286 0.4654
vn 0.2155 -0.9217 0.3225
vn 0.1117 -0.9796 0.1671
vn 0.0769 0.9796 0.1857
vn 0.1484 0.9217 0.3584
vn 0.2142 0.8286 0.5172
vn 0.2718 0.7041 0.6561
vn 0.3189 0.5528 0.7699
vn 0.3539 0.3805 0.8544
vn 0.3754 0.1939 0.9063
vn 0.3827 -0.0000 0.9239
vn 0.3754 -0.1939 0.9063
vn 0.3539 -0.3805 0.8544
vn 0.3189 -0.5528 0.7699
vn 0.2718 -0.7041 0.6561
vn 0.2142 -0.8286 0.5172
vn 0.1484 -0.9217 0.3584
vn 0.0769 -0.9796 0.1857
vn 0.0392 0.9796 0.1971
vn 0.0757 0.9217 0.3804
vn 0.1092 0.8286 0.5490
vn 0.1385 0.7041 0.6965
vn 0.1626 0.5528 0.8173
vn 0.1804 0.3805 0.9070
vn 0.1914 0.1939 0.9622
vn 0.1951 -0.0000 0.9808
vn 0.1914 -0.1939 0.9622
vn 0.1804 -0.3805 0.9070
vn 0.1626 -0.5528 0.8173
vn 0.1385 -0.7041 0.6965
vn 0.1092 -0.8286 0.5490
vn 0.0757 -0.9217 0.3804
vn 0.0392 -0.9796 0.1971
vn -0.0000 0.9796 0.2010
vn -0.0000 0.9217 0.3879
vn -0.0000 0.8286 0.5598
vn -0.0000 0.7041 0.7101
vn -0.0000 0.5528 0.8333
vn -0.0000 0.3805 0.9248
vn -0.0000 0.1939 0.9810
vn -0.0000 -0.0000 1.0000
vn -0.0000 -0.1939 0.9810
vn -0.0000 -0.3805 0.9248
vn -0.0000 -0.5528 0.8333
vn -0.0000 -0.7041 0.7101
vn -0.0000 -0.8286 0.5598
vn -0.0000 -0.9217 0.3879
vn -0.0000 -0.9796 0.2010
vn -0.0392 0.9796 0.1971
vn -0.0757 0.9217 0.3804
vn -0.1092 0.8286 0.5490
vn -0.1385 0.7041 0.6965
vn -0.1626 0.5528 0.8173
vn -0.1804 0.3805 0.9070
vn -0.1914 0.1939 0.9622
vn -0.1951 -0.0000 0.9808
vn -0.1914 -0.1939 0.9622
vn -0.1804 -0.3805 0.9070
vn -0.1626 -0.5528 0.8173
vn -0.1385 -0.7041 0.6965
vn -0.1092 -0.8286 0.5490
vn -0.0757 -0.9217 0.3804
vn -0.0392 -0.9796 0.1971
vn -0.0769 0.9796 0.1857
vn -0.1484 0.9217 0.3584
vn -0.2142 0.8286 0.5172
vn -0.2718 0.7041 0.6561
vn -0.3189 0.5528 0.7699
vn -0.3539 0.3805 0.8544
vn -0.3754 0.1939 0.9063
vn -0.3827 -0.0000 0.9239
vn -0.3754 -0.1939 0.9063
vn -0.3539 -0.3805 0.8544
vn -0.3189 -0.5528 0.7699
vn -0.2718 -0.7041 0.6561
vn -0.2142 -0.8286 0.5172
vn -0.1484 -0.9217 0.3584
vn -0.0769 -0.9796 0.1857
vn -0.1117 0.9796 0.1671
vn -0.2155 0.9217 0.3225
vn -0.3110 0.8286 0.4654
vn -0.3945 0.7041 0.5905
vn -0.4630 0.5528 0.6929
vn -0.5138 0.3805 0.7689
vn -0.5450 0.1939 0.8157
vn -0.5556 -0.0000 0.8315
vn -0.5450 -0.1939 0.8157
vn -0.5138 -0.3805 0.7689
vn -0.4630 -0.5528 0.6929
vn -0.3945 -0.7041 0.5905
vn -0.3110 -0.8286 0.4654
vn -0.2155 -0.9217 0.3225
vn -0.1117 -0.9796 0.1671
vn -0.1421 0.9796 0.1421
vn -0.2743 0.9217 0.2743
vn -0.3958 0.8286 0.3958
vn -0.5021 0.7041 0.5021
vn -0.5893 0.5528 0.5893
vn -0.6539 0.3805 0.6539
vn -0.6937 0.1939 0.6937
vn -0.7071 -0.0000 0.7071
vn -0.6937 -0.1939 0.6937
vn -0.6539 -0.3805 0.6539
vn -0.5893 -0.5528 0.5893
vn -0.5021 -0.7041 0.5021
vn -0.3958 -0.8286 0.3958
vn -0.2743 -0.9217 0.2743
vn -0.1421 -0.9796 0.1421
vn -0.1671 0.9796 0.1117
vn -0.3225 0.9217 0.2155
vn -0.4654 0.8286 0.3110
vn -0.5905 0.7041 0.3945
vn -0.6929 0.5528 0.4630
vn -0.7689 0.3805 0.5138
vn -0.8157 0.1939 0.5450
vn -0.8315 -0.0000 0.5556
vn -0.8157 -0.1939 0.5450
vn -0.7689 -0.3805 0.5138
vn -0.6929 -0.5528 0.4630
vn -0.5905 -0.7041 0.3945
vn -0.4654 -0.8286 0.3110
vn -0.3225 -0.9217 0.2155
vn -0.1671 -0.9796 0.1117
vn -0.1857 0.9796 0.0769
vn -0.3584 0.9217 0.1484
vn -0.5172 0.8286 0.2142
vn -0.6561 0.7041 0.2718
vn -0.7699 0.5528 0.3189
vn -0.8544 0.3805 0.3539
vn -0.9063 0.1939 0.3754
vn -0.9239 -0.0000 0.3827
vn -0.9063 -0.1939 0.3754
vn -0.8544 -0.3805 0.3539
vn -0.7699 -0.5528 0.3189
vn -0.6561 -0.7041 0.2718
vn -0.5172 -0.8286 0.2142
vn -0.3584 -0.9217 0.1484
vn -0.1857 -0.9796 0.0769
vn -0.1971 0.9796 0.0392
vn -0.3804 0.9217 0.0757
vn -0.5490 0.8286 0.1092
vn -0.6965 0.7041 0.1385
vn -0.8173 0.5528 0.1626
vn -0.9070 0.3805 0.1804
vn -0.9622 0.1939 0.1914
vn -0.9808 -0.0000 0.1951
vn -0.9622 -0.1939 0.1914
vn -0.9070 -0.3805 0.1804
vn -0.8173 -0.5528 0.1626
vn -0.6965 -0.7041 0.1385
vn -0.5490 -0.8286 0.1092
vn -0.3804 -0.9217 0.0757
vn -0.1971 -0.9796 0.0392
vn -0.2010 0.9796 -0.0000
vn -0.3879 0.9217 -0.0000
vn -0.5598 0.8286 -0.0000
vn -0.7101 0.7041 -0.0000
vn -0.8333 0.5528 -0.0000
vn -0.9248 0.3805 -0.0000
vn -0.9810 0.1939 -0.0000
vn -1.0000 -0.0000 -0.0000
vn -0.9810 -0.1939 -0.0000
vn -0.9248 -0.3805 -0.0000
vn -0.8333 -0.5528 -0.0000
vn -0.7101 -0.7041 -0.0000
vn -0.5598 -0.8286 -0.0000
vn -0.3879 -0.9217 -0.0000
vn -0.2010 -0.9796 -0.0000
vn -0.1971 0.9796 -0.0392
vn -0.3804 0.9217 -0.0757
vn -0.5490 0.8286 -0.1092
vn -0.6965 0.7041 -0.1385
vn -0.8173 0.5528 -0.1626
vn -0.9070 0.3805 -0.1804
vn -0.9622 0.1939 -0.1914
vn -0.9808 -0.0000 -0.1951
vn -0.9622 -0.1939 -0.1914
vn -0.9070 -0.3805 -0.1804
vn -0.8173 -0.5528 -0.1626
vn -0.6965 -0.7041 -0.1385
vn -0.5490 -0.8286 -0.1092
vn -0.3804 -0.9217 -0.0757
vn -0.1971 -0.9796 -0.0392
vn -0.1857 0.9796 -0.0769
vn -0.3584 0.9217 -0.1484
vn -0.5172 0.8286 -0.2142
vn -0.6561 0.7041 -0.2718
vn -0.7699 0.5528 -0.3189
vn -0.8544 0.3805 -0.3539
vn -0.9063 0.1939 -0.3754
vn -0.9239 -0.0000 -0.3827
vn -0.9063 -0.1939 -0.3754
vn -0.8544 -0.3805 -0.3539
vn -0.7699 -0.5528 -0.3189
vn -0.6561 -0.7041 -0.2718
vn -0.5172 -0.8286 -0.2142
vn -0.3584 -0.9217 -0.1484
vn -0.1857 -0.9796 -0.0769
vn -0.1671 0.9796 -0.1117
vn -0.3225 0.9217 -0.2155
vn -0.4654 0.8286 -0.3110
vn -0.5905 0.7041 -0.3945
vn -0.6929 0.5528 -0.4630
vn -0.7689 0.3805 -0.5138
vn -0.8157 0.1939 -0.5450
vn -0.8315 -0.0000 -0.5556
vn -0.8157 -0.1939 -0.5450
vn -0.7689 -0.3805 -0.5138
vn -0.6929 -0.5528 -0.4630
vn -0.5905 -0.7041 -0.3945
vn -0.4654 -0.8286 -0.3110
vn -0.3225 -0.9217 -0.2155
vn -0.1671 -0.9796 -0.1117
vn -0.1421 0.9796 -0.1421
vn -0.2743 0.9217 -0.2743
vn -0.3958 0.8286 -0.3958
vn -0.5021 0.7041 -0.5021
vn -0.5893 0.5528 -0.5893
vn -0.6539 0.3805 -0.6539
vn -0.6937 0.1939 -0.6937
vn -0.7071 -0.0000 -0.7071
vn -0.6937 -0.1939 -0.6937
vn -0.6539 -0.3805 -0.6539
vn -0.5893 -0.5528 -0.5893
vn -0.5021 -0.7041 -0.5021
vn -0.3958 -0.8286 -0.3958
vn -0.2743 -0.9217 -0.2743
vn -0.1421 -0.9796 -0.1421
vn -0.1117 0.9796 -0.1671
vn -0.2155 0.9217 -0.3225
vn -0.3110 0.8286 -0.4654
vn -0.3945 0.7041 -0.5905
vn -0.4630 0.5528 -0.6929
vn -0.5138 0.3805 -0.7689
vn -0.5450 0.1939 -0.8157
vn -0.5556 -0.0000 -0.8315
vn -0.5450 -0.1939 -0.8157
vn -0.5138 -0.3805 -0.7689
vn -0.4630 -0.5528 -0.6929
vn -0.3945 -0.7041 -0.5905
vn -0.3110 -0.8286 -0.4654
vn -0.2155 -0.9217 -0.3225
vn -0.1117 -0.9796 -0.1671
vn -0.0769 0.9796 -0.1857
vn -0.1484 0.9217 -0.3584
vn -0.2142 0.8286 -0.5172
vn -0.2718 0.7041 -0.6561
vn -0.3189 0.5528 -0.7699
vn -0.3539 0.3805 -0.8544
vn -0.3754 0.1939 -0.9063
vn -0.3827 -0.0000 -0.9239
vn -0.3754 -0.1939 -0.9063
vn -0.3539 -0.3805 -0.8544
vn -0.3189 -0.5528 -0.7699
vn -0.2718 -0.7041 -0.6561
vn -0.2142 -0.8286 -0.5172
vn -0.1484 -0.9217 -0.3584
vn -0.0769 -0.9796 -0.1857
vn -0.0392 0.9796 -0.1971
vn -0.0757 0.9217 -0.3804
vn -0.1092 0.8286 -0.5490
vn -0.1385 0.7041 -0.6965
vn -0.1626 0.5528 -0.8173
vn -0.1804 0.3805 -0.9070
vn -0.1914 0.1939 -0.9622
vn -0.1951 -0.0000 -0.9808
vn -0.1914 -0.1939 -0.9622
vn -0.1804 -0.3805 -0.9070
vn -0.1626 -0.5528 -0.8173
vn -0.1385 -0.7041 -0.6965
vn -0.1092 -0.8286 -0.5490
vn -0.0757 -0.9217 -0.3804
vn -0.0392 -0.9796 -0.1971
vn -0.0000 0.9796 -0.2010
vn -0.0000 0.9217 -0.3879
vn -0.0000 0.7041 -0.7101
vn -0.0000 0.3805 -0.9248
vn -0.0000 -0.3805 -0.9248
vn -0.0000 -0.7041 -0.7101
vn -0.0000 -0.8286 -0.5598
vn -0.0000 -0.9217 -0.3879
vn -0.0000 -0.9796 -0.2010
vt 0.750000 0.562500
vt 0.718750 0.625000
vt 0.718750 0.562500
vt 0.750000 0.125000
vt 0.718750 0.062500
vt 0.750000 0.062500
vt 0.718750 0.500000
vt 0.750000 0.500000
vt 0.750000 0.937500
vt 0.734375 1.000000
vt 0.718750 0.937500
vt 0.734375 0.000000
vt 0.718750 0.437500
vt 0.750000 0.437500
vt 0.750000 0.875000
vt 0.718750 0.875000
vt 0.718750 0.375000
vt 0.750000 0.375000
vt 0.750000 0.812500
vt 0.718750 0.812500
vt 0.718750 0.312500
vt 0.750000 0.312500
vt 0.750000 0.750000
vt 0.718750 0.750000
vt 0.718750 0.250000
vt 0.750000 0.250000
vt 0.750000 0.687500
vt 0.718750 0.687500
vt 0.718750 0.187500
vt 0.750000 0.187500
vt 0.750000 0.625000
vt 0.718750 0.125000
vt 0.687500 0.250000
vt 0.687500 0.187500
vt 0.687500 0.625000
vt 0.687500 0.125000
vt 0.687500 0.562500
vt 0.687500 0.062500
vt 0.687500 0.500000
vt 0.703125 1.000000
vt 0.687500 0.937500
vt 0.703125 0.000000
vt 0.687500 0.437500
vt 0.687500 0.875000
vt 0.687500 0.375000
vt 0.687500 0.812500
vt 0.687500 0.312500
vt 0.687500 0.750000
vt 0.687500 0.687500
vt 0.656250 0.375000
vt 0.656250 0.812500
vt 0.656250 0.312500
vt 0.656250 0.750000
vt 0.656250 0.250000
vt 0.656250 0.687500
vt 0.656250 0.187500
vt 0.656250 0.625000
vt 0.656250 0.125000
vt 0.656250 0.562500
vt 0.656250 0.062500
vt 0.656250 0.500000
vt 0.671875 1.000000
vt 0.656250 0.937500
vt 0.671875 0.000000
vt 0.656250 0.437500
vt 0.656250 0.875000
vt 0.625000 0.125000
vt 0.625000 0.625000
vt 0.625000 0.562500
vt 0.625000 0.062500
vt 0.625000 0.500000
vt 0.640625 1.000000
vt 0.625000 0.937500
vt 0.640625 0.000000
vt 0.625000 0.437500
vt 0.625000 0.875000
vt 0.625000 0.375000
vt 0.625000 0.812500
vt 0.625000 0.312500
vt 0.625000 0.750000
vt 0.625000 0.250000
vt 0.625000 0.687500
vt 0.625000 0.187500
vt 0.593750 0.812500
vt 0.593750 0.375000
vt 0.593750 0.312500
vt 0.593750 0.750000
vt 0.593750 0.250000
vt 0.593750 0.687500
vt 0.593750 0.187500
vt 0.593750 0.625000
vt 0.593750 0.125000
vt 0.593750 0.562500
vt 0.593750 0.062500
vt 0.593750 0.500000
vt 0.609375 1.000000
vt 0.593750 0.937500
vt 0.609375 0.000000
vt 0.593750 0.437500
vt 0.593750 0.875000
vt 0.562500 0.625000
vt 0.562500 0.562500
vt 0.562500 0.125000
vt 0.562500 0.062500
vt 0.562500 0.500000
vt 0.578125 1.000000
vt 0.562500 0.937500
vt 0.578125 0.000000
vt 0.562500 0.437500
vt 0.562500 0.875000
vt 0.562500 0.375000
vt 0.562500 0.812500
vt 0.562500 0.312500
vt 0.562500 0.750000
vt 0.562500 0.250000
vt 0.562500 0.687500
vt 0.562500 0.187500
vt 0.531250 0.375000
vt 0.531250 0.312500
vt 0.531250 0.750000
vt 0.531250 0.250000
vt 0.531250 0.687500
vt 0.531250 0.187500
vt 0.531250 0.625000
vt 0.531250 0.125000
vt 0.531250 0.562500
vt 0.531250 0.062500
vt 0.531250 0.500000
vt 0.546875 1.000000
vt 0.531250 0.937500
vt 0.546875 0.000000
vt 0.531250 0.437500
vt 0.531250 0.875000
vt 0.531250 0.812500
vt 0.500000 0.062500
vt 0.500000 0.562500
vt 0.500000 0.500000
vt 0.515625 1.000000
vt 0.500000 0.937500
vt 0.515625 0.000000
vt 0.500000 0.437500
vt 0.500000 0.875000
vt 0.500000 0.375000
vt 0.500000 0.812500
vt 0.500000 0.312500
vt 0.500000 0.750000
vt 0.500000 0.250000
vt 0.500000 0.687500
vt 0.500000 0.187500
vt 0.500000 0.625000
vt 0.500000 0.125000
vt 0.468750 0.750000
vt 0.468750 0.250000
vt 0.468750 0.687500
vt 0.468750 0.187500
vt 0.468750 0.625000
vt 0.468750 0.125000
vt 0.468750 0.562500
vt 0.468750 0.062500
vt 0.468750 0.500000
vt 0.484375 1.000000
vt 0.468750 0.937500
vt 0.484375 0.000000
vt 0.468750 0.437500
vt 0.468750 0.875000
vt 0.468750 0.375000
vt 0.468750 0.812500
vt 0.468750 0.312500
vt 0.437500 0.562500
vt 0.437500 0.500000
vt 0.453125 1.000000
vt 0.437500 0.937500
vt 0.453125 0.000000
vt 0.437500 0.062500
vt 0.437500 0.437500
vt 0.437500 0.875000
vt 0.437500 0.375000
vt 0.437500 0.812500
vt 0.437500 0.312500
vt 0.437500 0.750000
vt 0.437500 0.250000
vt 0.437500 0.687500
vt 0.437500 0.187500
vt 0.437500 0.625000
vt 0.437500 0.125000
vt 0.406250 0.250000
vt 0.406250 0.750000
vt 0.406250 0.687500
vt 0.406250 0.187500
vt 0.406250 0.625000
vt 0.406250 0.125000
vt 0.406250 0.562500
vt 0.406250 0.062500
vt 0.406250 0.500000
vt 0.421875 1.000000
vt 0.406250 0.937500
vt 0.421875 0.000000
vt 0.406250 0.437500
vt 0.406250 0.875000
vt 0.406250 0.375000
vt 0.406250 0.812500
vt 0.406250 0.312500
vt 0.390625 0.000000
vt 0.375000 0.062500
vt 0.375000 0.437500
vt 0.375000 0.875000
vt 0.375000 0.375000
vt 0.375000 0.812500
vt 0.375000 0.312500
vt 0.375000 0.750000
vt 0.375000 0.250000
vt 0.375000 0.687500
vt 0.375000 0.187500
vt 0.375000 0.625000
vt 0.375000 0.125000
vt 0.375000 0.562500
vt 0.375000 0.500000
vt 0.390625 1.000000
vt 0.375000 0.937500
vt 0.343750 0.250000
vt 0.343750 0.187500
vt 0.343750 0.625000
vt 0.343750 0.125000
vt 0.343750 0.562500
vt 0.343750 0.062500
vt 0.343750 0.500000
vt 0.359375 1.000000
vt 0.343750 0.937500
vt 0.359375 0.000000
vt 0.343750 0.437500
vt 0.343750 0.875000
vt 0.343750 0.375000
vt 0.343750 0.812500
vt 0.343750 0.312500
vt 0.343750 0.750000
vt 0.343750 0.687500
vt 0.312500 0.875000
vt 0.312500 0.375000
vt 0.312500 0.812500
vt 0.312500 0.312500
vt 0.312500 0.750000
vt 0.312500 0.250000
vt 0.312500 0.687500
vt 0.312500 0.187500
vt 0.312500 0.625000
vt 0.312500 0.125000
vt 0.312500 0.562500
vt 0.312500 0.062500
vt 0.312500 0.500000
vt 0.328125 1.000000
vt 0.312500 0.937500
vt 0.328125 0.000000
vt 0.312500 0.437500
vt 0.281250 0.625000
vt 0.281250 0.125000
vt 0.281250 0.562500
vt 0.281250 0.062500
vt 0.281250 0.500000
vt 0.296875 1.000000
vt 0.281250 0.937500
vt 0.296875 0.000000
vt 0.281250 0.437500
vt 0.281250 0.875000
vt 0.281250 0.375000
vt 0.281250 0.812500
vt 0.281250 0.312500
vt 0.281250 0.750000
vt 0.281250 0.250000
vt 0.281250 0.687500
vt 0.281250 0.187500
vt 0.250000 0.375000
vt 0.250000 0.875000
vt 0.250000 0.812500
vt 0.250000 0.312500
vt 0.250000 0.750000
vt 0.250000 0.250000
vt 0.250000 0.687500
vt 0.250000 0.187500
vt 0.250000 0.625000
vt 0.250000 0.125000
vt 0.250000 0.562500
vt 0.250000 0.062500
vt 0.250000 0.500000
vt 0.265625 1.000000
vt 0.250000 0.937500
vt 0.265625 0.000000
vt 0.250000 0.437500
vt 0.218750 0.125000
vt 0.218750 0.625000
vt 0.218750 0.562500
vt 0.218750 0.062500
vt 0.218750 0.500000
vt 0.234375 1.000000
vt 0.218750 0.937500
vt 0.234375 0.000000
vt 0.218750 0.437500
vt 0.218750 0.875000
vt 0.218750 0.375000
vt 0.218750 0.812500
vt 0.218750 0.312500
vt 0.218750 0.750000
vt 0.218750 0.250000
vt 0.218750 0.687500
vt 0.218750 0.187500
vt 0.187500 0.812500
vt 0.187500 0.375000
vt 0.187500 0.312500
vt 0.187500 0.750000
vt 0.187500 0.250000
vt 0.187500 0.687500
vt 0.187500 0.187500
vt 0.187500 0.625000
vt 0.187500 0.125000
vt 0.187500 0.562500
vt 0.187500 0.062500
vt 0.187500 0.500000
vt 0.203125 1.000000
vt 0.187500 0.937500
vt 0.203125 0.000000
vt 0.187500 0.437500
vt 0.187500 0.875000
vt 0.156250 0.625000
vt 0.156250 0.562500
vt 0.156250 0.125000
vt 0.156250 0.062500
vt 0.156250 0.500000
vt 0.171875 1.000000
vt 0.156250 0.937500
vt 0.171875 0.000000
vt 0.156250 0.437500
vt 0.156250 0.875000
vt 0.156250 0.375000
vt 0.156250 0.812500
vt 0.156250 0.312500
vt 0.156250 0.750000
vt 0.156250 0.250000
vt 0.156250 0.687500
vt 0.156250 0.187500
vt 0.125000 0.375000
vt 0.125000 0.312500
vt 0.125000 0.750000
vt 0.125000 0.250000
vt 0.125000 0.687500
vt 0.125000 0.187500
vt 0.125000 0.625000
vt 0.125000 0.125000
vt 0.125000 0.562500
vt 0.125000 0.062500
vt 0.125000 0.500000
vt 0.140625 1.000000
vt 0.125000 0.937500
vt 0.140625 0.000000
vt 0.125000 0.437500
vt 0.125000 0.875000
vt 0.125000 0.812500
vt 0.093750 0.062500
vt 0.093750 0.562500
vt 0.093750 0.500000
vt 0.109375 1.000000
vt 0.093750 0.937500
vt 0.109375 0.000000
vt 0.093750 0.437500
vt 0.093750 0.875000
vt 0.093750 0.375000
vt 0.093750 0.812500
vt 0.093750 0.312500
vt 0.093750 0.750000
vt 0.093750 0.250000
vt 0.093750 0.687500
vt 0.093750 0.187500
vt 0.093750 0.625000
vt 0.093750 0.125000
vt 0.062500 0.250000
vt 0.062500 0.687500
vt 0.062500 0.187500
vt 0.062500 0.625000
vt 0.062500 0.125000
vt 0.062500 0.562500
vt 0.062500 0.062500
vt 0.062500 0.500000
vt 0.078125 1.000000
vt 0.062500 0.937500
vt 0.078125 0.000000
vt 0.062500 0.437500
vt 0.062500 0.875000
vt 0.062500 0.375000
vt 0.062500 0.812500
vt 0.062500 0.312500
vt 0.062500 0.750000
vt 0.046875 1.000000
vt 0.031250 0.937500
vt 0.046875 0.000000
vt 0.031250 0.062500
vt 0.031250 0.437500
vt 0.031250 0.875000
vt 0.031250 0.375000
vt 0.031250 0.812500
vt 0.031250 0.312500
vt 0.031250 0.750000
vt 0.031250 0.250000
vt 0.031250 0.687500
vt 0.031250 0.187500
vt 0.031250 0.625000
vt 0.031250 0.125000
vt 0.031250 0.562500
vt 0.031250 0.500000
vt 0.000000 0.750000
vt 0.000000 0.687500
vt 0.000000 0.250000
vt 0.000000 0.187500
vt 0.000000 0.625000
vt 0.000000 0.125000
vt 0.000000 0.562500
vt 0.000000 0.062500
vt 0.000000 0.500000
vt 0.015625 1.000000
vt 0.000000 0.937500
vt 0.015625 0.000000
vt 0.000000 0.437500
vt 0.000000 0.875000
vt 0.000000 0.375000
vt 0.000000 0.812500
vt 0.000000 0.312500
vt 1.000000 0.500000
vt 0.968750 0.437500
vt 1.000000 0.437500
vt 1.000000 0.937500
vt 0.968750 0.875000
vt 1.000000 0.875000
vt 0.968750 0.375000
vt 1.000000 0.375000
vt 1.000000 0.812500
vt 0.968750 0.812500
vt 1.000000 0.312500
vt 0.968750 0.312500
vt 0.968750 0.750000
vt 1.000000 0.750000
vt 0.968750 0.250000
vt 1.000000 0.250000
vt 1.000000 0.687500
vt 0.968750 0.687500
vt 1.000000 0.187500
vt 0.968750 0.187500
vt 0.968750 0.625000
vt 1.000000 0.625000
vt 0.968750 0.125000
vt 1.000000 0.125000
vt 1.000000 0.562500
vt 0.968750 0.562500
vt 0.968750 0.062500
vt 1.000000 0.062500
vt 0.968750 0.500000
vt 0.984375 1.000000
vt 0.968750 0.937500
vt 0.984375 0.000000
vt 0.937500 0.250000
vt 0.937500 0.187500
vt 0.937500 0.625000
vt 0.937500 0.125000
vt 0.937500 0.562500
vt 0.937500 0.062500
vt 0.937500 0.500000
vt 0.953125 1.000000
vt 0.937500 0.937500
vt 0.953125 0.000000
vt 0.937500 0.437500
vt 0.937500 0.875000
vt 0.937500 0.375000
vt 0.937500 0.812500
vt 0.937500 0.312500
vt 0.937500 0.750000
vt 0.937500 0.687500
vt 0.906250 0.937500
vt 0.906250 0.875000
vt 0.906250 0.375000
vt 0.906250 0.812500
vt 0.906250 0.312500
vt 0.906250 0.750000
vt 0.906250 0.250000
vt 0.906250 0.687500
vt 0.906250 0.187500
vt 0.906250 0.625000
vt 0.906250 0.125000
vt 0.906250 0.562500
vt 0.906250 0.062500
vt 0.906250 0.500000
vt 0.921875 1.000000
vt 0.921875 0.000000
vt 0.906250 0.437500
vt 0.875000 0.625000
vt 0.875000 0.125000
vt 0.875000 0.562500
vt 0.875000 0.062500
vt 0.875000 0.500000
vt 0.890625 1.000000
vt 0.875000 0.937500
vt 0.890625 0.000000
vt 0.875000 0.437500
vt 0.875000 0.875000
vt 0.875000 0.375000
vt 0.875000 0.812500
vt 0.875000 0.312500
vt 0.875000 0.750000
vt 0.875000 0.250000
vt 0.875000 0.687500
vt 0.875000 0.187500
vt 0.843750 0.375000
vt 0.843750 0.875000
vt 0.843750 0.812500
vt 0.843750 0.312500
vt 0.843750 0.750000
vt 0.843750 0.250000
vt 0.843750 0.687500
vt 0.843750 0.187500
vt 0.843750 0.625000
vt 0.843750 0.125000
vt 0.843750 0.562500
vt 0.843750 0.062500
vt 0.843750 0.500000
vt 0.859375 1.000000
vt 0.843750 0.937500
vt 0.859375 0.000000
vt 0.843750 0.437500
vt 0.812500 0.125000
vt 0.812500 0.625000
vt 0.812500 0.562500
vt 0.812500 0.062500
vt 0.812500 0.500000
vt 0.828125 1.000000
vt 0.812500 0.937500
vt 0.828125 0.000000
vt 0.812500 0.437500
vt 0.812500 0.875000
vt 0.812500 0.375000
vt 0.812500 0.812500
vt 0.812500 0.312500
vt 0.812500 0.750000
vt 0.812500 0.250000
vt 0.812500 0.687500
vt 0.812500 0.187500
vt 0.781250 0.375000
vt 0.781250 0.312500
vt 0.781250 0.750000
vt 0.781250 0.250000
vt 0.781250 0.687500
vt 0.781250 0.187500
vt 0.781250 0.625000
vt 0.781250 0.125000
vt 0.781250 0.562500
vt 0.781250 0.062500
vt 0.781250 0.500000
vt 0.796875 1.000000
vt 0.781250 0.937500
vt 0.796875 0.000000
vt 0.781250 0.437500
vt 0.781250 0.875000
vt 0.781250 0.812500
vt 0.765625 1.000000
vt 0.765625 0.000000
s 1
f 4/1/4 14/2/14 15/3/15
f 481/4/481 23/5/23 482/6/482
f 4/1/4 16/7/16 5/8/5
f 474/9/474 1/10/1 9/11/9
f 8/12/8 482/6/482 23/5/23
f 5/8/5 17/13/17 6/14/6
f 475/15/475 9/11/9 10/16/10
f 6/14/6 18/17/18 478/18/478
f 2/19/2 10/16/10 11/20/11
f 478/18/478 19/21/19 7/22/7
f 476/23/476 11/20/11 12/24/12
f 7/22/7 20/25/20 479/26/479
f 3/27/3 12/24/12 13/28/13
f 479/26/479 21/29/21 480/30/480
f 477/31/477 13/28/13 14/2/14
f 480/30/480 22/32/22 481/4/481
f 21/29/21 35/33/35 36/34/36
f 13/28/13 29/35/29 14/2/14
f 22/32/22 36/34/36 37/36/37
f 15/3/15 29/35/29 30/37/30
f 22/32/22 38/38/38 23/5/23
f 15/3/15 31/39/31 16/7/16
f 9/11/9 1/40/1 24/41/24
f 8/42/8 23/5/23 38/38/38
f 16/7/16 32/43/32 17/13/17
f 9/11/9 25/44/25 10/16/10
f 17/13/17 33/45/33 18/17/18
f 10/16/10 26/46/26 11/20/11
f 18/17/18 34/47/34 19/21/19
f 11/20/11 27/48/27 12/24/12
f 19/21/19 35/33/35 20/25/20
f 12/24/12 28/49/28 13/28/13
f 32/43/32 48/50/48 33/45/33
f 25/44/25 41/51/41 26/46/26
f 34/47/34 48/50/48 49/52/49
f 26/46/26 42/53/42 27/48/27
f 35/33/35 49/52/49 50/54/50
f 27/48/27 43/55/43 28/49/28
f 36/34/36 50/54/50 51/56/51
f 28/49/28 44/57/44 29/35/29
f 36/34/36 52/58/52 37/36/37
f 29/35/29 45/59/45 30/37/30
f 37/36/37 53/60/53 38/38/38
f 30/37/30 46/61/46 31/39/31
f 24/41/24 1/62/1 39/63/39
f 8/64/8 38/38/38 53/60/53
f 32/43/32 46/61/46 47/65/47
f 24/41/24 40/66/40 25/44/25
f 51/56/51 67/67/67 52/58/52
f 45/59/45 59/68/59 60/69/60
f 52/58/52 68/70/68 53/60/53
f 46/61/46 60/69/60 61/71/61
f 39/63/39 1/72/1 54/73/54
f 8/74/8 53/60/53 68/70/68
f 46/61/46 62/75/62 47/65/47
f 39/63/39 55/76/55 40/66/40
f 47/65/47 63/77/63 48/50/48
f 40/66/40 56/78/56 41/51/41
f 49/52/49 63/77/63 64/79/64
f 41/51/41 57/80/57 42/53/42
f 49/52/49 65/81/65 50/54/50
f 42/53/42 58/82/58 43/55/43
f 50/54/50 66/83/66 51/56/51
f 43/55/43 59/68/59 44/57/44
f 55/76/55 71/84/71 56/78/56
f 64/79/64 78/85/78 79/86/79
f 56/78/56 72/87/72 57/80/57
f 64/79/64 80/88/80 65/81/65
f 58/82/58 72/87/72 73/89/73
f 65/81/65 81/90/81 66/83/66
f 58/82/58 74/91/74 59/68/59
f 67/67/67 81/90/81 82/92/82
f 60/69/60 74/91/74 75/93/75
f 67/67/67 83/94/83 68/70/68
f 61/71/61 75/93/75 76/95/76
f 54/73/54 1/96/1 69/97/69
f 8/98/8 68/70/68 83/94/83
f 61/71/61 77/99/77 62/75/62
f 54/73/54 70/100/70 55/76/55
f 62/75/62 78/85/78 63/77/63
f 75/93/75 89/101/89 90/102/90
f 83/94/83 97/103/97 98/104/98
f 76/95/76 90/102/90 91/105/91
f 69/97/69 1/106/1 84/107/84
f 8/108/8 83/94/83 98/104/98
f 76/95/76 92/109/92 77/99/77
f 69/97/69 85/110/85 70/100/70
f 77/99/77 93/111/93 78/85/78
f 70/100/70 86/112/86 71/84/71
f 79/86/79 93/111/93 94/113/94
f 71/84/71 87/114/87 72/87/72
f 79/86/79 95/115/95 80/88/80
f 73/89/73 87/114/87 88/116/88
f 80/88/80 96/117/96 81/90/81
f 73/89/73 89/101/89 74/91/74
f 81/90/81 97/103/97 82/92/82
f 94/113/94 108/118/108 109/119/109
f 86/112/86 102/120/102 87/114/87
f 94/113/94 110/121/110 95/115/95
f 88/116/88 102/120/102 103/122/103
f 96/117/96 110/121/110 111/123/111
f 88/116/88 104/124/104 89/101/89
f 97/103/97 111/123/111 112/125/112
f 90/102/90 104/124/104 105/126/105
f 97/103/97 113/127/113 98/104/98
f 91/105/91 105/126/105 106/128/106
f 84/107/84 1/129/1 99/130/99
f 8/131/8 98/104/98 113/127/113
f 91/105/91 107/132/107 92/109/92
f 85/110/85 99/130/99 100/133/100
f 92/109/92 108/118/108 93/111/93
f 85/110/85 101/134/101 86/112/86
f 112/125/112 128/135/128 113/127/113
f 106/128/106 120/136/120 121/137/121
f 99/130/99 1/138/1 114/139/114
f 8/140/8 113/127/113 128/135/128
f 106/128/106 122/141/122 107/132/107
f 100/133/100 114/139/114 115/142/115
f 107/132/107 123/143/123 108/118/108
f 100/133/100 116/144/116 101/134/101
f 109/119/109 123/143/123 124/145/124
f 101/134/101 117/146/117 102/120/102
f 109/119/109 125/147/125 110/121/110
f 103/122/103 117/146/117 118/148/118
f 111/123/111 125/147/125 126/149/126
f 103/122/103 119/150/119 104/124/104
f 111/123/111 127/151/127 112/125/112
f 105/126/105 119/150/119 120/136/120
f 116/144/116 132/152/132 117/146/117
f 124/145/124 140/153/140 125/147/125
f 118/148/118 132/152/132 133/154/133
f 126/149/126 140/153/140 141/155/141
f 118/148/118 134/156/134 119/150/119
f 126/149/126 142/157/142 127/151/127
f 120/136/120 134/156/134 135/158/135
f 127/151/127 143/159/143 128/135/128
f 121/137/121 135/158/135 136/160/136
f 114/139/114 1/161/1 129/162/129
f 8/163/8 128/135/128 143/159/143
f 121/137/121 137/164/137 122/141/122
f 114/139/114 130/165/130 115/142/115
f 122/141/122 138/166/138 123/143/123
f 115/142/115 131/167/131 116/144/116
f 124/145/124 138/166/138 139/168/139
f 136/160/136 150/169/150 151/170/151
f 129/162/129 1/171/1 144/172/144
f 8/173/8 143/159/143 158/174/158
f 136/160/136 152/175/152 137/164/137
f 129/162/129 145/176/145 130/165/130
f 137/164/137 153/177/153 138/166/138
f 131/167/131 145/176/145 146/178/146
f 139/168/139 153/177/153 154/179/154
f 131/167/131 147/180/147 132/152/132
f 139/168/139 155/181/155 140/153/140
f 133/154/133 147/180/147 148/182/148
f 141/155/141 155/181/155 156/183/156
f 133/154/133 149/184/149 134/156/134
f 141/155/141 157/185/157 142/157/142
f 135/158/135 149/184/149 150/169/150
f 143/159/143 157/185/157 158/174/158
f 154/179/154 170/186/170 155/181/155
f 148/182/148 162/187/162 163/188/163
f 156/183/156 170/186/170 171/189/171
f 148/182/148 164/190/164 149/184/149
f 156/183/156 172/191/172 157/185/157
f 150/169/150 164/190/164 165/192/165
f 157/185/157 173/193/173 158/174/158
f 151/170/151 165/192/165 166/194/166
f 144/172/144 1/195/1 159/196/159
f 8/197/8 158/174/158 173/193/173
f 151/170/151 167/198/167 152/175/152
f 144/172/144 160/199/160 145/176/145
f 152/175/152 168/200/168 153/177/153
f 146/178/146 160/199/160 161/201/161
f 154/179/154 168/200/168 169/202/169
f 146/178/146 162/187/162 147/180/147
f 8/203/8 173/193/173 188/204/188
f 166/194/166 182/205/182 167/198/167
f 159/196/159 175/206/175 160/199/160
f 167/198/167 183/207/183 168/200/168
f 160/199/160 176/208/176 161/201/161
f 169/202/169 183/207/183 184/209/184
f 161/201/161 177/210/177 162/187/162
f 169/202/169 185/211/185 170/186/170
f 163/188/163 177/210/177 178/212/178
f 170/186/170 186/213/186 171/189/171
f 163/188/163 179/214/179 164/190/164
f 172/191/172 186/213/186 187/215/187
f 165/192/165 179/214/179 180/216/180
f 173/193/173 187/215/187 188/204/188
f 166/194/166 180/216/180 181/217/181
f 159/196/159 1/218/1 174/219/174
f 186/213/186 200/220/200 201/221/201
f 178/212/178 194/222/194 179/214/179
f 186/213/186 202/223/202 187/215/187
f 180/216/180 194/222/194 195/224/195
f 187/215/187 203/225/203 188/204/188
f 181/217/181 195/224/195 196/226/196
f 174/219/174 1/227/1 189/228/189
f 8/229/8 188/204/188 203/225/203
f 181/217/181 197/230/197 182/205/182
f 175/206/175 189/228/189 190/231/190
f 182/205/182 198/232/198 183/207/183
f 176/208/176 190/231/190 191/233/191
f 184/209/184 198/232/198 199/234/199
f 176/208/176 192/235/192 177/210/177
f 184/209/184 200/220/200 185/211/185
f 178/212/178 192/235/192 193/236/193
f 189/228/189 205/237/205 190/231/190
f 197/230/197 213/238/213 198/232/198
f 190/231/190 206/239/206 191/233/191
f 199/234/199 213/238/213 214/240/214
f 191/233/191 207/241/207 192/235/192
f 199/234/199 215/242/215 200/220/200
f 193/236/193 207/241/207 208/243/208
f 201/221/201 215/242/215 216/244/216
f 193/236/193 209/245/209 194/222/194
f 201/221/201 217/246/217 202/223/202
f 195/224/195 209/245/209 210/247/210
f 202/223/202 218/248/218 203/225/203
f 196/226/196 210/247/210 211/249/211
f 189/228/189 1/250/1 204/251/204
f 8/252/8 203/225/203 218/248/218
f 196/226/196 212/253/212 197/230/197
f 208/243/208 224/254/224 209/245/209
f 216/244/216 232/255/232 217/246/217
f 210/247/210 224/254/224 225/256/225
f 217/246/217 233/257/233 218/248/218
f 211/249/211 225/256/225 226/258/226
f 204/251/204 1/259/1 219/260/219
f 8/261/8 218/248/218 233/257/233
f 211/249/211 227/262/227 212/253/212
f 204/251/204 220/263/220 205/237/205
f 212/253/212 228/264/228 213/238/213
f 205/237/205 221/265/221 206/239/206
f 214/240/214 228/264/228 229/266/229
f 206/239/206 222/267/222 207/241/207
f 214/240/214 230/268/230 215/242/215
f 208/243/208 222/267/222 223/269/223
f 216/244/216 230/268/230 231/270/231
f 227/262/227 243/271/243 228/264/228
f 221/265/221 235/272/235 236/273/236
f 229/266/229 243/271/243 244/274/244
f 221/265/221 237/275/237 222/267/222
f 229/266/229 245/276/245 230/268/230
f 223/269/223 237/275/237 238/277/238
f 231/270/231 245/276/245 246/278/246
f 223/269/223 239/279/239 224/254/224
f 231/270/231 247/280/247 232/255/232
f 225/256/225 239/279/239 240/281/240
f 233/257/233 247/280/247 248/282/248
f 226/258/226 240/281/240 241/283/241
f 219/260/219 1/284/1 234/285/234
f 8/286/8 233/257/233 248/282/248
f 226/258/226 242/287/242 227/262/227
f 219/260/219 235/272/235 220/263/220
f 246/278/246 262/288/262 247/280/247
f 240/281/240 254/289/254 255/290/255
f 247/280/247 263/291/263 248/282/248
f 241/283/241 255/290/255 256/292/256
f 234/285/234 1/293/1 249/294/249
f 8/295/8 248/282/248 263/291/263
f 241/283/241 257/296/257 242/287/242
f 234/285/234 250/297/250 235/272/235
f 242/287/242 258/298/258 243/271/243
f 235/272/235 251/299/251 236/273/236
f 244/274/244 258/298/258 259/300/259
f 236/273/236 252/301/252 237/275/237
f 244/274/244 260/302/260 245/276/245
f 238/277/238 252/301/252 253/303/253
f 246/278/246 260/302/260 261/304/261
f 238/277/238 254/289/254 239/279/239
f 250/297/250 266/305/266 251/299/251
f 259/300/259 273/306/273 274/307/274
f 251/299/251 267/308/267 252/301/252
f 259/300/259 275/309/275 260/302/260
f 253/303/253 267/308/267 268/310/268
f 261/304/261 275/309/275 276/311/276
f 253/303/253 269/312/269 254/289/254
f 261/304/261 277/313/277 262/288/262
f 255/290/255 269/312/269 270/314/270
f 262/288/262 278/315/278 263/291/263
f 256/292/256 270/314/270 271/316/271
f 249/294/249 1/317/1 264/318/264
f 8/319/8 263/291/263 278/315/278
f 256/292/256 272/320/272 257/296/257
f 250/297/250 264/318/264 265/321/265
f 257/296/257 273/306/273 258/298/258
f 270/314/270 284/322/284 285/323/285
f 278/315/278 292/324/292 293/325/293
f 271/316/271 285/323/285 286/326/286
f 264/318/264 1/327/1 279/328/279
f 8/329/8 278/315/278 293/325/293
f 271/316/271 287/330/287 272/320/272
f 265/321/265 279/328/279 280/331/280
f 272/320/272 288/332/288 273/306/273
f 265/321/265 281/333/281 266/305/266
f 274/307/274 288/332/288 289/334/289
f 266/305/266 282/335/282 267/308/267
f 274/307/274 290/336/290 275/309/275
f 268/310/268 282/335/282 283/337/283
f 276/311/276 290/336/290 291/338/291
f 268/310/268 284/322/284 269/312/269
f 276/311/276 292/324/292 277/313/277
f 289/334/289 303/339/303 304/340/304
f 281/333/281 297/341/297 282/335/282
f 289/334/289 305/342/305 290/336/290
f 283/337/283 297/341/297 298/343/298
f 291/338/291 305/342/305 306/344/306
f 283/337/283 299/345/299 284/322/284
f 291/338/291 307/346/307 292/324/292
f 285/323/285 299/345/299 300/347/300
f 293/325/293 307/346/307 308/348/308
f 286/326/286 300/347/300 301/349/301
f 279/328/279 1/350/1 294/351/294
f 8/352/8 293/325/293 308/348/308
f 286/326/286 302/353/302 287/330/287
f 279/328/279 295/354/295 280/331/280
f 287/330/287 303/339/303 288/332/288
f 280/331/280 296/355/296 281/333/281
f 307/346/307 323/356/323 308/348/308
f 301/349/301 315/357/315 316/358/316
f 294/351/294 1/359/1 309/360/309
f 8/361/8 308/348/308 323/356/323
f 301/349/301 317/362/317 302/353/302
f 294/351/294 310/363/310 295/354/295
f 302/353/302 318/364/318 303/339/303
f 295/354/295 311/365/311 296/355/296
f 304/340/304 318/364/318 319/366/319
f 296/355/296 312/367/312 297/341/297
f 304/340/304 320/368/320 305/342/305
f 298/343/298 312/367/312 313/369/313
f 306/344/306 320/368/320 321/370/321
f 298/343/298 314/371/314 299/345/299
f 306/344/306 322/372/322 307/346/307
f 300/347/300 314/371/314 315/357/315
f 319/366/319 335/373/335 320/368/320
f 312/367/312 328/374/328 313/369/313
f 321/370/321 335/373/335 336/375/336
f 313/369/313 329/376/329 314/371/314
f 321/370/321 337/377/337 322/372/322
f 315/357/315 329/376/329 330/378/330
f 322/372/322 338/379/338 323/356/323
f 316/358/316 330/378/330 331/380/331
f 309/360/309 1/381/1 324/382/324
f 8/383/8 323/356/323 338/379/338
f 316/358/316 332/384/332 317/362/317
f 309/360/309 325/385/325 310/363/310
f 317/362/317 333/386/333 318/364/318
f 310/363/310 326/387/326 311/365/311
f 319/366/319 333/386/333 334/388/334
f 311/365/311 327/389/327 312/367/312
f 324/382/324 1/390/1 339/391/339
f 8/392/8 338/379/338 353/393/353
f 331/380/331 347/394/347 332/384/332
f 324/382/324 340/395/340 325/385/325
f 332/384/332 348/396/348 333/386/333
f 325/385/325 341/397/341 326/387/326
f 334/388/334 348/396/348 349/398/349
f 326/387/326 342/399/342 327/389/327
f 334/388/334 350/400/350 335/373/335
f 328/374/328 342/399/342 343/401/343
f 336/375/336 350/400/350 351/402/351
f 328/374/328 344/403/344 329/376/329
f 336/375/336 352/404/352 337/377/337
f 330/378/330 344/403/344 345/405/345
f 337/377/337 353/393/353 338/379/338
f 331/380/331 345/405/345 346/406/346
f 343/401/343 357/407/357 358/408/358
f 351/402/351 365/409/365 366/410/366
f 343/401/343 359/411/359 344/403/344
f 351/402/351 367/412/367 352/404/352
f 345/405/345 359/411/359 360/413/360
f 352/404/352 368/414/368 353/393/353
f 346/406/346 360/413/360 361/415/361
f 339/391/339 1/416/1 354/417/354
f 8/418/8 353/393/353 368/414/368
f 346/406/346 362/419/362 347/394/347
f 339/391/339 355/420/355 340/395/340
f 347/394/347 363/421/363 348/396/348
f 341/397/341 355/420/355 356/422/356
f 349/398/349 363/421/363 364/423/364
f 341/397/341 357/407/357 342/399/342
f 349/398/349 365/409/365 350/400/350
f 361/424/361 377/425/377 362/426/362
f 354/427/354 370/428/370 355/429/355
f 362/426/362 378/430/378 363/431/363
f 356/432/356 370/428/370 371/433/371
f 364/434/364 378/430/378 379/435/379
f 356/432/356 372/436/372 357/437/357
f 364/434/364 380/438/380 365/439/365
f 358/440/358 372/436/372 373/441/373
f 366/442/366 380/438/380 381/443/381
f 358/440/358 374/444/374 359/445/359
f 366/442/366 382/446/382 367/447/367
f 360/448/360 374/444/374 375/449/375
f 367/447/367 383/450/383 368/451/368
f 361/424/361 375/449/375 376/452/376
f 354/427/354 1/453/1 369/454/369
f 8/455/8 368/451/368 383/450/383
f 381/443/381 395/456/395 396/457/396
f 373/441/373 389/458/389 374/444/374
f 381/443/381 397/459/397 382/446/382
f 375/449/375 389/458/389 390/460/390
f 382/446/382 398/461/398 383/450/383
f 376/452/376 390/460/390 391/462/391
f 369/454/369 1/463/1 384/464/384
f 8/465/8 383/450/383 398/461/398
f 376/452/376 392/466/392 377/425/377
f 369/454/369 385/467/385 370/428/370
f 377/425/377 393/468/393 378/430/378
f 371/433/371 385/467/385 386/469/386
f 379/435/379 393/468/393 394/470/394
f 371/433/371 387/471/387 372/436/372
f 379/435/379 395/456/395 380/438/380
f 373/441/373 387/471/387 388/472/388
f 385/467/385 399/473/399 400/474/400
f 392/466/392 408/475/408 393/468/393
f 385/467/385 401/476/401 386/469/386
f 394/470/394 408/475/408 409/477/409
f 386/469/386 402/478/402 387/471/387
f 394/470/394 410/479/410 395/456/395
f 388/472/388 402/478/402 403/480/403
f 396/457/396 410/479/410 411/481/411
f 388/472/388 404/482/404 389/458/389
f 397/459/397 411/481/411 412/483/412
f 390/460/390 404/482/404 405/484/405
f 397/459/397 413/485/413 398/461/398
f 391/462/391 405/484/405 406/486/406
f 384/464/384 1/487/1 399/473/399
f 8/488/8 398/461/398 413/485/413
f 391/462/391 407/489/407 392/466/392
f 403/480/403 419/490/419 404/482/404
f 411/481/411 427/491/427 412/483/412
f 405/484/405 419/490/419 420/492/420
f 412/483/412 428/493/428 413/485/413
f 406/486/406 420/492/420 421/494/421
f 399/473/399 1/495/1 414/496/414
f 8/497/8 413/485/413 428/493/428
f 406/486/406 422/498/422 407/489/407
f 399/473/399 415/499/415 400/474/400
f 407/489/407 423/500/423 408/475/408
f 401/476/401 415/499/415 416/501/416
f 409/477/409 423/500/423 424/502/424
f 401/476/401 417/503/417 402/478/402
f 409/477/409 425/504/425 410/479/410
f 403/480/403 417/503/417 418/505/418
f 411/481/411 425/504/425 426/506/426
f 422/498/422 438/507/438 423/500/423
f 416/501/416 430/508/430 431/509/431
f 424/502/424 438/507/438 439/510/439
f 416/501/416 432/511/432 417/503/417
f 424/502/424 440/512/440 425/504/425
f 418/505/418 432/511/432 433/513/433
f 426/506/426 440/512/440 441/514/441
f 418/505/418 434/515/434 419/490/419
f 426/506/426 442/516/442 427/491/427
f 420/492/420 434/515/434 435/517/435
f 427/491/427 443/518/443 428/493/428
f 421/494/421 435/517/435 436/519/436
f 414/496/414 1/520/1 429/521/429
f 8/522/8 428/493/428 443/518/443
f 421/494/421 437/523/437 422/498/422
f 414/496/414 430/508/430 415/499/415
f 441/514/441 457/524/457 442/516/442
f 435/517/435 449/525/449 450/526/450
f 442/516/442 458/527/458 443/518/443
f 436/519/436 450/526/450 451/528/451
f 429/521/429 1/529/1 444/530/444
f 8/531/8 443/518/443 458/527/458
f 436/519/436 452/532/452 437/523/437
f 430/508/430 444/530/444 445/533/445
f 437/523/437 453/534/453 438/507/438
f 430/508/430 446/535/446 431/509/431
f 439/510/439 453/534/453 454/536/454
f 431/509/431 447/537/447 432/511/432
f 439/510/439 455/538/455 440/512/440
f 433/513/433 447/537/447 448/539/448
f 441/514/441 455/538/455 456/540/456
f 433/513/433 449/525/449 434/515/434
f 454/536/454 468/541/468 469/542/469
f 446/535/446 462/543/462 447/537/447
f 454/536/454 470/544/470 455/538/455
f 448/539/448 462/543/462 463/545/463
f 456/540/456 470/544/470 471/546/471
f 448/539/448 464/547/464 449/525/449
f 456/540/456 472/548/472 457/524/457
f 450/526/450 464/547/464 465/549/465
f 458/527/458 472/548/472 473/550/473
f 451/528/451 465/549/465 466/551/466
f 444/530/444 1/552/1 459/553/459
f 8/554/8 458/527/458 473/550/473
f 451/528/451 467/555/467 452/532/452
f 444/530/444 460/556/460 445/533/445
f 452/532/452 468/541/468 453/534/453
f 446/535/446 460/556/460 461/557/461
f 472/548/472 482/6/482 473/550/473
f 466/551/466 4/1/4 5/8/5
f 459/553/459 1/558/1 474/9/474
f 8/559/8 473/550/473 482/6/482
f 466/551/466 6/14/6 467/555/467
f 460/556/460 474/9/474 475/15/475
f 467/555/467 478/18/478 468/541/468
f 461/557/461 475/15/475 2/19/2
f 468/541/468 7/22/7 469/542/469
f 462/543/462 2/19/2 476/23/476
f 469/542/469 479/26/479 470/544/470
f 463/545/463 476/23/476 3/27/3
f 471/546/471 479/26/479 480/30/480
f 464/547/464 3/27/3 477/31/477
f 471/546/471 481/4/481 472/548/472
f 465/549/465 477/31/477 4/1/4
f 4/1/4 477/31/477 14/2/14
f 481/4/481 22/32/22 23/5/23
f 4/1/4 15/3/15 16/7/16
f 5/8/5 16/7/16 17/13/17
f 475/15/475 474/9/474 9/11/9
f 6/14/6 17/13/17 18/17/18
f 2/19/2 475/15/475 10/16/10
f 478/18/478 18/17/18 19/21/19
f 476/23/476 2/19/2 11/20/11
f 7/22/7 19/21/19 20/25/20
f 3/27/3 476/23/476 12/24/12
f 479/26/479 20/25/20 21/29/21
f 477/31/477 3/27/3 13/28/13
f 480/30/480 21/29/21 22/32/22
f 21/29/21 20/25/20 35/33/35
f 13/28/13 28/49/28 29/35/29
f 22/32/22 21/29/21 36/34/36
f 15/3/15 14/2/14 29/35/29
f 22/32/22 37/36/37 38/38/38
f 15/3/15 30/37/30 31/39/31
f 16/7/16 31/39/31 32/43/32
f 9/11/9 24/41/24 25/44/25
f 17/13/17 32/43/32 33/45/33
f 10/16/10 25/44/25 26/46/26
f 18/17/18 33/45/33 34/47/34
f 11/20/11 26/46/26 27/48/27
f 19/21/19 34/47/34 35/33/35
f 12/24/12 27/48/27 28/49/28
f 32/43/32 47/65/47 48/50/48
f 25/44/25 40/66/40 41/51/41
f 34/47/34 33/45/33 48/50/48
f 26/46/26 41/51/41 42/53/42
f 35/33/35 34/47/34 49/52/49
f 27/48/27 42/53/42 43/55/43
f 36/34/36 35/33/35 50/54/50
f 28/49/28 43/55/43 44/57/44
f 36/34/36 51/56/51 52/58/52
f 29/35/29 44/57/44 45/59/45
f 37/36/37 52/58/52 53/60/53
f 30/37/30 45/59/45 46/61/46
f 32/43/32 31/39/31 46/61/46
f 24/41/24 39/63/39 40/66/40
f 51/56/51 66/83/66 67/67/67
f 45/59/45 44/57/44 59/68/59
f 52/58/52 67/67/67 68/70/68
f 46/61/46 45/59/45 60/69/60
f 46/61/46 61/71/61 62/75/62
f 39/63/39 54/73/54 55/76/55
f 47/65/47 62/75/62 63/77/63
f 40/66/40 55/76/55 56/78/56
f 49/52/49 48/50/48 63/77/63
f 41/51/41 56/78/56 57/80/57
f 49/52/49 64/79/64 65/81/65
f 42/53/42 57/80/57 58/82/58
f 50/54/50 65/81/65 66/83/66
f 43/55/43 58/82/58 59/68/59
f 55/76/55 70/100/70 71/84/71
f 64/79/64 63/77/63 78/85/78
f 56/78/56 71/84/71 72/87/72
f 64/79/64 79/86/79 80/88/80
f 58/82/58 57/80/57 72/87/72
f 65/81/65 80/88/80 81/90/81
f 58/82/58 73/89/73 74/91/74
f 67/67/67 66/83/66 81/90/81
f 60/69/60 59/68/59 74/91/74
f 67/67/67 82/92/82 83/94/83
f 61/71/61 60/69/60 75/93/75
f 61/71/61 76/95/76 77/99/77
f 54/73/54 69/97/69 70/100/70
f 62/75/62 77/99/77 78/85/78
f 75/93/75 74/91/74 89/101/89
f 83/94/83 82/92/82 97/103/97
f 76/95/76 75/93/75 90/102/90
f 76/95/76 91/105/91 92/109/92
f 69/97/69 84/107/84 85/110/85
f 77/99/77 92/109/92 93/111/93
f 70/100/70 85/110/85 86/112/86
f 79/86/79 78/85/78 93/111/93
f 71/84/71 86/112/86 87/114/87
f 79/86/79 94/113/94 95/115/95
f 73/89/73 72/87/72 87/114/87
f 80/88/80 95/115/95 96/117/96
f 73/89/73 88/116/88 89/101/89
f 81/90/81 96/117/96 97/103/97
f 94/113/94 93/111/93 108/118/108
f 86/112/86 101/134/101 102/120/102
f 94/113/94 109/119/109 110/121/110
f 88/116/88 87/114/87 102/120/102
f 96/117/96 95/115/95 110/121/110
f 88/116/88 103/122/103 104/124/104
f 97/103/97 96/117/96 111/123/111
f 90/102/90 89/101/89 104/124/104
f 97/103/97 112/125/112 113/127/113
f 91/105/91 90/102/90 105/126/105
f 91/105/91 106/128/106 107/132/107
f 85/110/85 84/107/84 99/130/99
f 92/109/92 107/132/107 108/118/108
f 85/110/85 100/133/100 101/134/101
f 112/125/112 127/151/127 128/135/128
f 106/128/106 105/126/105 120/136/120
f 106/128/106 121/137/121 122/141/122
f 100/133/100 99/130/99 114/139/114
f 107/132/107 122/141/122 123/143/123
f 100/133/100 115/142/115 116/144/116
f 109/119/109 108/118/108 123/143/123
f 101/134/101 116/144/116 117/146/117
f 109/119/109 124/145/124 125/147/125
f 103/122/103 102/120/102 117/146/117
f 111/123/111 110/121/110 125/147/125
f 103/122/103 118/148/118 119/150/119
f 111/123/111 126/149/126 127/151/127
f 105/126/105 104/124/104 119/150/119
f 116/144/116 131/167/131 132/152/132
f 124/145/124 139/168/139 140/153/140
f 118/148/118 117/146/117 132/152/132
f 126/149/126 125/147/125 140/153/140
f 118/148/118 133/154/133 134/156/134
f 126/149/126 141/155/141 142/157/142
f 120/136/120 119/150/119 134/156/134
f 127/151/127 142/157/142 143/159/143
f 121/137/121 120/136/120 135/158/135
f 121/137/121 136/160/136 137/164/137
f 114/139/114 129/162/129 130/165/130
f 122/141/122 137/164/137 138/166/138
f 115/142/115 130/165/130 131/167/131
f 124/145/124 123/143/123 138/166/138
f 136/160/136 135/158/135 150/169/150
f 136/160/136 151/170/151 152/175/152
f 129/162/129 144/172/144 145/176/145
f 137/164/137 152/175/152 153/177/153
f 131/167/131 130/165/130 145/176/145
f 139/168/139 138/166/138 153/177/153
f 131/167/131 146/178/146 147/180/147
f 139/168/139 154/179/154 155/181/155
f 133/154/133 132/152/132 147/180/147
f 141/155/141 140/153/140 155/181/155
f 133/154/133 148/182/148 149/184/149
f 141/155/141 156/183/156 157/185/157
f 135/158/135 134/156/134 149/184/149
f 143/159/143 142/157/142 157/185/157
f 154/179/154 169/202/169 170/186/170
f 148/182/148 147/180/147 162/187/162
f 156/183/156 155/181/155 170/186/170
f 148/182/148 163/188/163 164/190/164
f 156/183/156 171/189/171 172/191/172
f 150/169/150 149/184/149 164/190/164
f 157/185/157 172/191/172 173/193/173
f 151/170/151 150/169/150 165/192/165
f 151/170/151 166/194/166 167/198/167
f 144/172/144 159/196/159 160/199/160
f 152/175/152 167/198/167 168/200/168
f 146/178/146 145/176/145 160/199/160
f 154/179/154 153/177/153 168/200/168
f 146/178/146 161/201/161 162/187/162
f 166/194/166 181/217/181 182/205/182
f 159/196/159 174/219/174 175/206/175
f 167/198/167 182/205/182 183/207/183
f 160/199/160 175/206/175 176/208/176
f 169/202/169 168/200/168 183/207/183
f 161/201/161 176/208/176 177/210/177
f 169/202/169 184/209/184 185/211/185
f 163/188/163 162/187/162 177/210/177
f 170/186/170 185/211/185 186/213/186
f 163/188/163 178/212/178 179/214/179
f 172/191/172 171/189/171 186/213/186
f 165/192/165 164/190/164 179/214/179
f 173/193/173 172/191/172 187/215/187
f 166/194/166 165/192/165 180/216/180
f 186/213/186 185/211/185 200/220/200
f 178/212/178 193/236/193 194/222/194
f 186/213/186 201/221/201 202/223/202
f 180/216/180 179/214/179 194/222/194
f 187/215/187 202/223/202 203/225/203
f 181/217/181 180/216/180 195/224/195
f 181/217/181 196/226/196 197/230/197
f 175/206/175 174/219/174 189/228/189
f 182/205/182 197/230/197 198/232/198
f 176/208/176 175/206/175 190/231/190
f 184/209/184 183/207/183 198/232/198
f 176/208/176 191/233/191 192/235/192
f 184/209/184 199/234/199 200/220/200
f 178/212/178 177/210/177 192/235/192
f 189/228/189 204/251/204 205/237/205
f 197/230/197 212/253/212 213/238/213
f 190/231/190 205/237/205 206/239/206
f 199/234/199 198/232/198 213/238/213
f 191/233/191 206/239/206 207/241/207
f 199/234/199 214/240/214 215/242/215
f 193/236/193 192/235/192 207/241/207
f 201/221/201 200/220/200 215/242/215
f 193/236/193 208/243/208 209/245/209
f 201/221/201 216/244/216 217/246/217
f 195/224/195 194/222/194 209/245/209
f 202/223/202 217/246/217 218/248/218
f 196/226/196 195/224/195 210/247/210
f 196/226/196 211/249/211 212/253/212
f 208/243/208 223/269/223 224/254/224
f 216/244/216 231/270/231 232/255/232
f 210/247/210 209/245/209 224/254/224
f 217/246/217 232/255/232 233/257/233
f 211/249/211 210/247/210 225/256/225
f 211/249/211 226/258/226 227/262/227
f 204/251/204 219/260/219 220/263/220
f 212/253/212 227/262/227 228/264/228
f 205/237/205 220/263/220 221/265/221
f 214/240/214 213/238/213 228/264/228
f 206/239/206 221/265/221 222/267/222
f 214/240/214 229/266/229 230/268/230
f 208/243/208 207/241/207 222/267/222
f 216/244/216 215/242/215 230/268/230
f 227/262/227 242/287/242 243/271/243
f 221/265/221 220/263/220 235/272/235
f 229/266/229 228/264/228 243/271/243
f 221/265/221 236/273/236 237/275/237
f 229/266/229 244/274/244 245/276/245
f 223/269/223 222/267/222 237/275/237
f 231/270/231 230/268/230 245/276/245
f 223/269/223 238/277/238 239/279/239
f 231/270/231 246/278/246 247/280/247
f 225/256/225 224/254/224 239/279/239
f 233/257/233 232/255/232 247/280/247
f 226/258/226 225/256/225 240/281/240
f 226/258/226 241/283/241 242/287/242
f 219/260/219 234/285/234 235/272/235
f 246/278/246 261/304/261 262/288/262
f 240/281/240 239/279/239 254/289/254
f 247/280/247 262/288/262 263/291/263
f 241/283/241 240/281/240 255/290/255
f 241/283/241 256/292/256 257/296/257
f 234/285/234 249/294/249 250/297/250
f 242/287/242 257/296/257 258/298/258
f 235/272/235 250/297/250 251/299/251
f 244/274/244 243/271/243 258/298/258
f 236/273/236 251/299/251 252/301/252
f 244/274/244 259/300/259 260/302/260
f 238/277/238 237/275/237 252/301/252
f 246/278/246 245/276/245 260/302/260
f 238/277/238 253/303/253 254/289/254
f 250/297/250 265/321/265 266/305/266
f 259/300/259 258/298/258 273/306/273
f 251/299/251 266/305/266 267/308/267
f 259/300/259 274/307/274 275/309/275
f 253/303/253 252/301/252 267/308/267
f 261/304/261 260/302/260 275/309/275
f 253/303/253 268/310/268 269/312/269
f 261/304/261 276/311/276 277/313/277
f 255/290/255 254/289/254 269/312/269
f 262/288/262 277/313/277 278/315/278
f 256/292/256 255/290/255 270/314/270
f 256/292/256 271/316/271 272/320/272
f 250/297/250 249/294/249 264/318/264
f 257/296/257 272/320/272 273/306/273
f 270/314/270 269/312/269 284/322/284
f 278/315/278 277/313/277 292/324/292
f 271/316/271 270/314/270 285/323/285
f 271/316/271 286/326/286 287/330/287
f 265/321/265 264/318/264 279/328/279
f 272/320/272 287/330/287 288/332/288
f 265/321/265 280/331/280 281/333/281
f 274/307/274 273/306/273 288/332/288
f 266/305/266 281/333/281 282/335/282
f 274/307/274 289/334/289 290/336/290
f 268/310/268 267/308/267 282/335/282
f 276/311/276 275/309/275 290/336/290
f 268/310/268 283/337/283 284/322/284
f 276/311/276 291/338/291 292/324/292
f 289/334/289 288/332/288 303/339/303
f 281/333/281 296/355/296 297/341/297
f 289/334/289 304/340/304 305/342/305
f 283/337/283 282/335/282 297/341/297
f 291/338/291 290/336/290 305/342/305
f 283/337/283 298/343/298 299/345/299
f 291/338/291 306/344/306 307/346/307
f 285/323/285 284/322/284 299/345/299
f 293/325/293 292/324/292 307/346/307
f 286/326/286 285/323/285 300/347/300
f 286/326/286 301/349/301 302/353/302
f 279/328/279 294/351/294 295/354/295
f 287/330/287 302/353/302 303/339/303
f 280/331/280 295/354/295 296/355/296
f 307/346/307 322/372/322 323/356/323
f 301/349/301 300/347/300 315/357/315
f 301/349/301 316/358/316 317/362/317
f 294/351/294 309/360/309 310/363/310
f 302/353/302 317/362/317 318/364/318
f 295/354/295 310/363/310 311/365/311
f 304/340/304 303/339/303 318/364/318
f 296/355/296 311/365/311 312/367/312
f 304/340/304 319/366/319 320/368/320
f 298/343/298 297/341/297 312/367/312
f 306/344/306 305/342/305 320/368/320
f 298/343/298 313/369/313 314/371/314
f 306/344/306 321/370/321 322/372/322
f 300/347/300 299/345/299 314/371/314
f 319/366/319 334/388/334 335/373/335
f 312/367/312 327/389/327 328/374/328
f 321/370/321 320/368/320 335/373/335
f 313/369/313 328/374/328 329/376/329
f 321/370/321 336/375/336 337/377/337
f 315/357/315 314/371/314 329/376/329
f 322/372/322 337/377/337 338/379/338
f 316/358/316 315/357/315 330/378/330
f 316/358/316 331/380/331 332/384/332
f 309/360/309 324/382/324 325/385/325
f 317/362/317 332/384/332 333/386/333
f 310/363/310 325/385/325 326/387/326
f 319/366/319 318/364/318 333/386/333
f 311/365/311 326/387/326 327/389/327
f 331/380/331 346/406/346 347/394/347
f 324/382/324 339/391/339 340/395/340
f 332/384/332 347/394/347 348/396/348
f 325/385/325 340/395/340 341/397/341
f 334/388/334 333/386/333 348/396/348
f 326/387/326 341/397/341 342/399/342
f 334/388/334 349/398/349 350/400/350
f 328/374/328 327/389/327 342/399/342
f 336/375/336 335/373/335 350/400/350
f 328/374/328 343/401/343 344/403/344
f 336/375/336 351/402/351 352/404/352
f 330/378/330 329/376/329 344/403/344
f 337/377/337 352/404/352 353/393/353
f 331/380/331 330/378/330 345/405/345
f 343/401/343 342/399/342 357/407/357
f 351/402/351 350/400/350 365/409/365
f 343/401/343 358/408/358 359/411/359
f 351/402/351 366/410/366 367/412/367
f 345/405/345 344/403/344 359/411/359
f 352/404/352 367/412/367 368/414/368
f 346/406/346 345/405/345 360/413/360
f 346/406/346 361/415/361 362/419/362
f 339/391/339 354/417/354 355/420/355
f 347/394/347 362/419/362 363/421/363
f 341/397/341 340/395/340 355/420/355
f 349/398/349 348/396/348 363/421/363
f 341/397/341 356/422/356 357/407/357
f 349/398/349 364/423/364 365/409/365
f 361/424/361 376/452/376 377/425/377
f 354/427/354 369/454/369 370/428/370
f 362/426/362 377/425/377 378/430/378
f 356/432/356 355/429/355 370/428/370
f 364/434/364 363/431/363 378/430/378
f 356/432/356 371/433/371 372/436/372
f 364/434/364 379/435/379 380/438/380
f 358/440/358 357/437/357 372/436/372
f 366/442/366 365/439/365 380/438/380
f 358/440/358 373/441/373 374/444/374
f 366/442/366 381/443/381 382/446/382
f 360/448/360 359/445/359 374/444/374
f 367/447/367 382/446/382 383/450/383
f 361/424/361 360/448/360 375/449/375
f 381/443/381 380/438/380 395/456/395
f 373/441/373 388/472/388 389/458/389
f 381/443/381 396/457/396 397/459/397
f 375/449/375 374/444/374 389/458/389
f 382/446/382 397/459/397 398/461/398
f 376/452/376 375/449/375 390/460/390
f 376/452/376 391/462/391 392/466/392
f 369/454/369 384/464/384 385/467/385
f 377/425/377 392/466/392 393/468/393
f 371/433/371 370/428/370 385/467/385
f 379/435/379 378/430/378 393/468/393
f 371/433/371 386/469/386 387/471/387
f 379/435/379 394/470/394 395/456/395
f 373/441/373 372/436/372 387/471/387
f 385/467/385 384/464/384 399/473/399
f 392/466/392 407/489/407 408/475/408
f 385/467/385 400/474/400 401/476/401
f 394/470/394 393/468/393 408/475/408
f 386/469/386 401/476/401 402/478/402
f 394/470/394 409/477/409 410/479/410
f 388/472/388 387/471/387 402/478/402
f 396/457/396 395/456/395 410/479/410
f 388/472/388 403/480/403 404/482/404
f 397/459/397 396/457/396 411/481/411
f 390/460/390 389/458/389 404/482/404
f 397/459/397 412/483/412 413/485/413
f 391/462/391 390/460/390 405/484/405
f 391/462/391 406/486/406 407/489/407
f 403/480/403 418/505/418 419/490/419
f 411/481/411 426/506/426 427/491/427
f 405/484/405 404/482/404 419/490/419
f 412/483/412 427/491/427 428/493/428
f 406/486/406 405/484/405 420/492/420
f 406/486/406 421/494/421 422/498/422
f 399/473/399 414/496/414 415/499/415
f 407/489/407 422/498/422 423/500/423
f 401/476/401 400/474/400 415/499/415
f 409/477/409 408/475/408 423/500/423
f 401/476/401 416/501/416 417/503/417
f 409/477/409 424/502/424 425/504/425
f 403/480/403 402/478/402 417/503/417
f 411/481/411 410/479/410 425/504/425
f 422/498/422 437/523/437 438/507/438
f 416/501/416 415/499/415 430/508/430
f 424/502/424 423/500/423 438/507/438
f 416/501/416 431/509/431 432/511/432
f 424/502/424 439/510/439 440/512/440
f 418/505/418 417/503/417 432/511/432
f 426/506/426 425/504/425 440/512/440
f 418/505/418 433/513/433 434/515/434
f 426/506/426 441/514/441 442/516/442
f 420/492/420 419/490/419 434/515/434
f 427/491/427 442/516/442 443/518/443
f 421/494/421 420/492/420 435/517/435
f 421/494/421 436/519/436 437/523/437
f 414/496/414 429/521/429 430/508/430
f 441/514/441 456/540/456 457/524/457
f 435/517/435 434/515/434 449/525/449
f 442/516/442 457/524/457 458/527/458
f 436/519/436 435/517/435 450/526/450
f 436/519/436 451/528/451 452/532/452
f 430/508/430 429/521/429 444/530/444
f 437/523/437 452/532/452 453/534/453
f 430/508/430 445/533/445 446/535/446
f 439/510/439 438/507/438 453/534/453
f 431/509/431 446/535/446 447/537/447
f 439/510/439 454/536/454 455/538/455
f 433/513/433 432/511/432 447/537/447
f 441/514/441 440/512/440 455/538/455
f 433/513/433 448/539/448 449/525/449
f 454/536/454 453/534/453 468/541/468
f 446/535/446 461/557/461 462/543/462
f 454/536/454 469/542/469 470/544/470
f 448/539/448 447/537/447 462/543/462
f 456/540/456 455/538/455 470/544/470
f 448/539/448 463/545/463 464/547/464
f 456/540/456 471/546/471 472/548/472
f 450/526/450 449/525/449 464/547/464
f 458/527/458 457/524/457 472/548/472
f 451/528/451 450/526/450 465/549/465
f 451/528/451 466/551/466 467/555/467
f 444/530/444 459/553/459 460/556/460
f 452/532/452 467/555/467 468/541/468
f 446/535/446 445/533/445 460/556/460
f 472/548/472 481/4/481 482/6/482
f 466/551/466 465/549/465 4/1/4
f 466/551/466 5/8/5 6/14/6
f 460/556/460 459/553/459 474/9/474
f 467/555/467 6/14/6 478/18/478
f 461/557/461 460/556/460 475/15/475
f 468/541/468 478/18/478 7/22/7
f 462/543/462 461/557/461 2/19/2
f 469/542/469 7/22/7 479/26/479
f 463/545/463 462/543/462 476/23/476
f 471/546/471 470/544/470 479/26/479
f 464/547/464 463/545/463 3/27/3
f 471/546/471 480/30/480 481/4/481
f 465/549/465 464/547/464 477/31/477
